<svg xmlns="http://www.w3.org/2000/svg" xmlns:xlink="http://www.w3.org/1999/xlink" width="302" height="190" viewBox="0 0 302 190"><defs><style>.a{fill:#bce0fd;}.b{clip-path:url(#a);}.c{fill:#f8f7f4;}.d{fill:#417b5a;}.e{fill:#455a64;}.f{fill:#263238;}.g{opacity:0.3;}.h{fill:#fafafa;}.i{opacity:0.4;}.j{fill:#ffbe9d;}.k{fill:#eb996e;}.l{fill:#e0e0e0;}.m{fill:#fff;}</style><clipPath id="a"><rect class="a" width="302" height="190" transform="translate(600 551)"/></clipPath></defs><g class="b" transform="translate(-600 -551)"><g transform="translate(639.682 532.243)"><path class="c" d="M153.539,180.084c-1.035-6.058-7.738-9.16-13.63-10.91A162.813,162.813,0,0,0,68,164.537l-1.277.847c-3.711,1.268-4.918,6.3-3.391,9.919s4.9,6.054,8.186,8.19c10.726,6.979,22.412,12.783,34.963,15.275s26.071,1.461,37.358-4.567C149.223,191.332,154.548,186.107,153.539,180.084Z"/><path class="c" d="M50.655,47.409l.671-1.478A37.357,37.357,0,0,1,83.034,24.272a35.639,35.639,0,0,1,5.3.114,38.866,38.866,0,0,1,30.374,20.587c3.426,6.677,5.076,14.626,10.7,19.592,7.317,6.466,18.376,5.435,28.041,4.032s20.728-2.408,28.019,4.089c4.567,4.071,6.58,10.366,6.953,16.473.965,16.161-8.734,31.818-22.338,40.6s-30.5,11.357-46.636,10.015c-22.588-1.882-44.987-11.568-59.749-28.786S42.842,68.7,50.655,47.409Z"/><path class="d" d="M39.109,91.246A4.387,4.387,0,0,1,36.849,89c-.18-.417-.184-1.062.259-1.154.272-.057.518.154.715.347L39.8,90.158a4.141,4.141,0,0,1,.118-3.211c.167-.355.518-.733.877-.6.294.11.386.469.439.776l.474,2.83a6.786,6.786,0,0,1,1.553-2.965c.272-.307.715-.605,1.062-.386s.29.636.224.991a14.038,14.038,0,0,1-.737,2.6,4.9,4.9,0,0,1,3.071-1.22,1.092,1.092,0,0,1,.908.294c.307.386.039.956-.29,1.316-.965,1.1-3.237,1.377-4.7,1.281"/><path class="e" d="M47.852,93.593c-3.54-2.786-9.761-3.18-13.854-1.316a14.724,14.724,0,0,0-8.1,11.757c-.439,4.483,1.733,9.028,3.566,13.161l17.872.083c2.145-3.54,4.387-7.506,4.518-11.643S51.1,96.151,47.852,93.593Z"/><path class="f" d="M39.832,91.132h-.079l-.232.057-.377.083a3.162,3.162,0,0,0-.513.132A10.261,10.261,0,0,0,35.6,92.856a13.713,13.713,0,0,0-3.448,3.58,20.571,20.571,0,0,0-1.448,2.6A21.859,21.859,0,0,0,29.6,102a13.573,13.573,0,0,0-.3,6.054,25.772,25.772,0,0,0,1.347,4.826c.5,1.338.934,2.408,1.228,3.154.14.364.254.649.333.877l.083.224c0,.053.026.079,0,.079s0,0-.039-.07l-.1-.219-.364-.847c-.311-.737-.768-1.8-1.281-3.141a25.387,25.387,0,0,1-1.386-4.826,13.6,13.6,0,0,1,.294-6.142,21.974,21.974,0,0,1,1.123-2.992,20.047,20.047,0,0,1,1.487-2.61,13.5,13.5,0,0,1,3.509-3.588A9.7,9.7,0,0,1,38.6,91.365a3.16,3.16,0,0,1,.526-.118l.386-.07.237-.035C39.806,91.132,39.832,91.128,39.832,91.132Z"/><path class="f" d="M45.04,117.128a1.526,1.526,0,0,1,.083-.268c.066-.189.154-.439.268-.755.233-.654.579-1.6.978-2.777s.851-2.584,1.241-4.176a27.409,27.409,0,0,0,.794-5.264,18.24,18.24,0,0,0-.548-5.264,14.389,14.389,0,0,0-1.676-3.988,11.7,11.7,0,0,0-1.829-2.281,6.053,6.053,0,0,0-.588-.54,1.545,1.545,0,0,1-.2-.189,1.755,1.755,0,0,1,.224.162,7.9,7.9,0,0,1,.614.518,11.182,11.182,0,0,1,1.882,2.264,14.328,14.328,0,0,1,1.728,4.014,18.249,18.249,0,0,1,.562,5.321,26.65,26.65,0,0,1-.812,5.291c-.4,1.6-.877,3-1.281,4.176s-.776,2.114-1.027,2.759c-.127.311-.224.562-.3.746A2.447,2.447,0,0,1,45.04,117.128Z"/><path class="f" d="M41.587,91.246a1.6,1.6,0,0,1-.07.259l-.233.741c-.105.32-.228.715-.36,1.171s-.3.978-.461,1.562c-.333,1.154-.684,2.544-1.04,4.093s-.671,3.273-.943,5.089-.439,3.558-.553,5.141c-.035.794-.092,1.549-.1,2.255v1.97c0,.6,0,1.145.039,1.623s.035.877.061,1.224.035.583.044.772a1.272,1.272,0,0,1,0,.272,1.9,1.9,0,0,1-.035-.268c0-.193-.048-.439-.079-.772s-.07-.746-.088-1.224-.061-1.022-.066-1.628v-1.97c0-.711.048-1.465.083-2.264.1-1.592.272-3.338.54-5.159s.61-3.54.961-5.1.728-2.939,1.075-4.093c.167-.579.338-1.1.483-1.553s.276-.847.39-1.167L41.5,91.5a1.637,1.637,0,0,1,.083-.25Z"/><path class="f" d="M26.466,105.468a6.014,6.014,0,0,1-1.224.649,5.944,5.944,0,0,1-1.29.483,5.663,5.663,0,0,1,1.22-.649A5.589,5.589,0,0,1,26.466,105.468Z"/><path class="f" d="M27.032,100.331a6.962,6.962,0,0,1-1.342-.676,6.8,6.8,0,0,1-1.255-.825,6.865,6.865,0,0,1,1.316.676,6.94,6.94,0,0,1,1.281.825Z"/><path class="f" d="M30.291,96.094a4.567,4.567,0,0,1-.592-1.053,4.641,4.641,0,0,1-.439-1.119,8.506,8.506,0,0,1,1.031,2.193Z"/><path class="f" d="M34.77,92.088a3.119,3.119,0,0,1-.649-.733,3.023,3.023,0,0,1-.513-.833,2.821,2.821,0,0,1,.649.724,2.777,2.777,0,0,1,.513.842Z"/><path class="f" d="M28.488,111.737a6.243,6.243,0,0,1-1.25.772,6.615,6.615,0,0,1-1.316.627,6.242,6.242,0,0,1,1.25-.772A6.615,6.615,0,0,1,28.488,111.737Z"/><path class="f" d="M33.827,108.614a4.558,4.558,0,0,1-1.145-.544,4.825,4.825,0,0,1-1.057-.689,4.856,4.856,0,0,1,1.141.544,4.957,4.957,0,0,1,1.062.689Z"/><path class="f" d="M35.314,101.481a3.391,3.391,0,0,1-1.1.588,3.444,3.444,0,0,1-1.206.311,7.9,7.9,0,0,1,1.145-.469A7.133,7.133,0,0,1,35.314,101.481Z"/><path class="f" d="M37.007,96.1a2.088,2.088,0,0,1-.439-.877,2.057,2.057,0,0,1-.175-.974,5.141,5.141,0,0,1,.333.917,4.865,4.865,0,0,1,.281.934Z"/><path class="f" d="M33.221,115.619a4.865,4.865,0,0,1,.478-1.2,5.141,5.141,0,0,1,.632-1.127,4.865,4.865,0,0,1-.478,1.206A5.265,5.265,0,0,1,33.221,115.619Z"/><path class="f" d="M42.228,113.7a5.264,5.264,0,0,1-1.8-2.11,13.509,13.509,0,0,1,.877,1.066,13.6,13.6,0,0,1,.926,1.044Z"/><path class="f" d="M45.351,105.846a6.493,6.493,0,0,1-1.246.812,6.707,6.707,0,0,1-1.316.667,6.747,6.747,0,0,1,1.246-.812,6.708,6.708,0,0,1,1.316-.667Z"/><path class="f" d="M43.25,101.016a5.813,5.813,0,0,1,.965-1.027,6.251,6.251,0,0,1,1.079-.908,5.62,5.62,0,0,1-.965,1.027,6.251,6.251,0,0,1-1.079.908Z"/><path class="f" d="M43.342,95.887a4.549,4.549,0,0,1-.983-.693,4.44,4.44,0,0,1-.877-.82,4.128,4.128,0,0,1,.987.689,4.422,4.422,0,0,1,.873.825Z"/><path class="f" d="M49.3,92.5a4.633,4.633,0,0,1-.978.737,4.47,4.47,0,0,1-1.07.6,4.466,4.466,0,0,1,.978-.737A4.47,4.47,0,0,1,49.3,92.5Z"/><path class="f" d="M51.594,97.195a3.128,3.128,0,0,1-1.022.158,3.128,3.128,0,0,1-1.031,0,3.386,3.386,0,0,1,1.018-.158A3.159,3.159,0,0,1,51.594,97.195Z"/><path class="f" d="M53.081,102.748a4.857,4.857,0,0,1-1.316-.039,5.356,5.356,0,0,1-1.285-.206,4.852,4.852,0,0,1,1.316.039A5.356,5.356,0,0,1,53.081,102.748Z"/><path class="f" d="M52.348,109.916a8.05,8.05,0,0,1-1.2-1.092,7.87,7.87,0,0,1-1.075-1.206,7.681,7.681,0,0,1,1.193,1.088A7.458,7.458,0,0,1,52.348,109.916Z"/><path class="f" d="M50.4,115.435a5.422,5.422,0,0,1-1.211-1.171,5.633,5.633,0,0,1-.934-1.4,16.561,16.561,0,0,1,1.066,1.29A13.819,13.819,0,0,1,50.4,115.435Z"/><g class="g"><path d="M43.561,91.619c.026-.048.382.127.969.522a10.3,10.3,0,0,1,2.158,2.114,12.1,12.1,0,0,1,1.974,4.04,18.96,18.96,0,0,1,.662,5.435,23.25,23.25,0,0,1-.728,5.418,28.725,28.725,0,0,1-1.426,4.207,13.655,13.655,0,0,1-1.926,3.588c-.088-.048.531-1.465,1.373-3.808a29.212,29.212,0,0,0,1.864-9.414,19.982,19.982,0,0,0-.57-5.225A12.472,12.472,0,0,0,46.2,94.6a12.928,12.928,0,0,0-1.878-2.193C43.816,91.93,43.526,91.685,43.561,91.619Z"/></g><g class="g"><path d="M41.46,90.97a18.839,18.839,0,0,1-.557,3.865c-.439,2.365-1.084,5.615-1.641,9.212-.272,1.807-.487,3.536-.645,5.106-.07.79-.145,1.535-.184,2.237s-.088,1.356-.114,1.952a25.338,25.338,0,0,1-.215,3.887c-.132.009-.333-1.474-.382-3.9v-1.978c0-.711.061-1.47.11-2.268.118-1.592.311-3.343.583-5.163.562-3.645,1.316-6.9,1.891-9.212A16.385,16.385,0,0,1,41.46,90.97Z"/></g><g class="g"><path d="M39.363,90.807a5.24,5.24,0,0,1-1.114.548A16.464,16.464,0,0,0,35.375,93a14.63,14.63,0,0,0-5.839,8.839,15.078,15.078,0,0,0-.338,3.071,19.547,19.547,0,0,0,.215,2.878,30.172,30.172,0,0,0,1.18,4.795c.439,1.342.842,2.422,1.105,3.172a3.63,3.63,0,0,1,.338,1.2c-.057.026-.281-.36-.64-1.075a32.971,32.971,0,0,1-1.364-3.1,25.957,25.957,0,0,1-1.382-4.869,18.649,18.649,0,0,1-.276-3,15.354,15.354,0,0,1,.338-3.237,14.828,14.828,0,0,1,2.593-5.7,14.3,14.3,0,0,1,3.733-3.47,13,13,0,0,1,3.071-1.461C38.9,90.807,39.35,90.733,39.363,90.807Z"/></g><path class="d" d="M27.212,120.541l2.821,18.539H46.421l3.8-18.271Z"/><path class="h" d="M47.931,132.425c0,.053-4.2.1-9.375.1s-9.383-.044-9.383-.1,4.2-.1,9.383-.1S47.931,132.373,47.931,132.425Z"/><path class="h" d="M48,131.513c0,.053-4.229.1-9.44.1s-9.445-.044-9.445-.1,4.229-.1,9.445-.1S48,131.46,48,131.513Z"/><path class="h" d="M47.966,130.482c0,.053-4.229.1-9.445.1s-9.44-.044-9.44-.1,4.225-.1,9.44-.1S47.966,130.429,47.966,130.482Z"/><path class="h" d="M31.914,138.023a15.082,15.082,0,0,1-.5-2.334,14.915,14.915,0,0,1-.311-2.365,15.082,15.082,0,0,1,.487,2.334A14.915,14.915,0,0,1,31.914,138.023Z"/><path class="h" d="M33.028,137.826a17.849,17.849,0,0,1-.2-2.277,18.039,18.039,0,0,1-.11-2.281,10.857,10.857,0,0,1,.3,2.268A11.077,11.077,0,0,1,33.028,137.826Z"/><path class="h" d="M35.06,137.826a11.845,11.845,0,0,1-.439-2.334,11.291,11.291,0,0,1-.123-2.373,21.41,21.41,0,0,1,.316,2.351A19.668,19.668,0,0,1,35.06,137.826Z"/><path class="h" d="M36.485,137.922a19.3,19.3,0,0,1-.154-4.755,19.5,19.5,0,0,1,.123,2.386,19.662,19.662,0,0,1,.031,2.369Z"/><path class="h" d="M39.012,137.826a13.069,13.069,0,0,1-.171-2.25,13.336,13.336,0,0,1,0-2.259,25.847,25.847,0,0,1,.154,4.51Z"/><path class="h" d="M40.859,137.926A13.81,13.81,0,0,1,40.8,135.6a14.09,14.09,0,0,1,.114-2.329,14.345,14.345,0,0,1,.079,2.329A14.739,14.739,0,0,1,40.859,137.926Z"/><path class="h" d="M42.587,137.676a31.4,31.4,0,0,1,.469-4.852A31.4,31.4,0,0,1,42.587,137.676Z"/><path class="h" d="M44.816,137.435a8.212,8.212,0,0,1,.276-2.071,8.375,8.375,0,0,1,.61-2,18.469,18.469,0,0,1-.439,2.04A18.974,18.974,0,0,1,44.816,137.435Z"/><path class="d" d="M25.33,116.874v3.466a1.369,1.369,0,0,0,1.364,1.369H50.449a1.369,1.369,0,0,0,1.369-1.369v-3.466Z"/><g class="i"><path d="M27.387,121.708l.2,1.1,21.9,1.562.553-2.663Z"/></g><path class="f" d="M213.823,139.164c0,.066-45.9.114-102.5.114s-102.512-.048-102.512-.114,45.886-.114,102.512-.114S213.823,139.1,213.823,139.164Z"/><path class="h" d="M171.788,18.762A20.179,20.179,0,0,0,155.8,51.006l-2.343,7.541,7.33-2.834a19.859,19.859,0,0,0,11,3.316,20.134,20.134,0,1,0,0-40.269Z"/><path class="f" d="M171.837,18.762a2.632,2.632,0,0,1,.351,0l1.027.031a6.646,6.646,0,0,1,.755.031l.9.127,1.057.154,1.18.294a19.1,19.1,0,0,1,5.7,2.492,20.07,20.07,0,0,1,9.331,17.938c-.031.469-.022.943-.092,1.413s-.14.948-.215,1.426A20.346,20.346,0,0,1,189.95,48.3a21.833,21.833,0,0,1-3.676,5.058,21.14,21.14,0,0,1-5.3,3.8,19.188,19.188,0,0,1-6.457,1.983,11.844,11.844,0,0,1-1.72.145,15.354,15.354,0,0,1-1.755.035,20.408,20.408,0,0,1-10.432-3.365h.211L153.75,58.8l-.439.167.118-.439q1.07-3.887,2.079-7.559l.035.189a20.307,20.307,0,0,1-3.76-8.6,18.456,18.456,0,0,1-.276-4.422,14.152,14.152,0,0,1,.2-2.128c.053-.347.11-.693.162-1.035s.167-.667.246-1a20.223,20.223,0,0,1,7.9-11.5,19.131,19.131,0,0,1,4.694-2.474l1.057-.382,1-.254.917-.228c.294-.057.579-.088.847-.127.535-.066,1-.158,1.417-.18l1.04-.035h.632a1.567,1.567,0,0,1,.215,0,.737.737,0,0,1-.215.031l-.632.053-1.031.066c-.408.035-.877.136-1.4.215a20.1,20.1,0,0,0-16.078,14.915c-.079.329-.18.649-.241.987s-.1.676-.149,1.013a13.687,13.687,0,0,0-.189,2.088,17.986,17.986,0,0,0,.285,4.339,19.89,19.89,0,0,0,3.724,8.449l.061.088-.026.1q-1,3.663-2.062,7.563l-.3-.263,7.072-2.847.11-.044.1.066a19.912,19.912,0,0,0,10.2,3.281,14.678,14.678,0,0,0,1.7-.031,11.955,11.955,0,0,0,1.685-.14,18.78,18.78,0,0,0,6.313-1.93,20.807,20.807,0,0,0,5.19-3.716,21.188,21.188,0,0,0,3.61-4.944,19.934,19.934,0,0,0,1.9-5.505c.07-.469.145-.934.215-1.4s.061-.926.1-1.386a21.493,21.493,0,0,0-.044-2.715,19.982,19.982,0,0,0-9.033-14.994,19.2,19.2,0,0,0-5.628-2.536l-1.154-.333-1.044-.171-.877-.149c-.272-.031-.526-.035-.75-.053l-1.018-.075A2,2,0,0,1,171.837,18.762Z"/><path class="d" d="M164.221,36.222a4.126,4.126,0,0,1,4.115-3.3,4.207,4.207,0,0,1,2.834,1.711,7.663,7.663,0,0,1,.667.965,8.05,8.05,0,0,1,.662-.969,4.233,4.233,0,0,1,2.834-1.711,4.128,4.128,0,0,1,4.119,3.295,6.73,6.73,0,0,1-1.434,5.391,10.831,10.831,0,0,1-6.335,4.251,13.011,13.011,0,0,1-6.019-4.242A6.751,6.751,0,0,1,164.221,36.222Z"/><path class="h" d="M164.576,39.7h3.593l-.044-.035.8,2.93.048.175.061-.171,1.535-4.418c.171-.487.338-.969.5-1.439h-.114l1.715,2.922v.031h.031l4.615-.026h1.663a.609.609,0,0,0,.118,0,.61.61,0,0,0-.118,0H177.32l-4.615-.022.048.026-1.7-2.93-.07-.114-.044.127c-.162.469-.329.952-.5,1.439-.544,1.579-1.062,3.071-1.527,4.418h.11c-.307-1.088-.588-2.079-.825-2.926v-.031h-.035l-2.632.022h-.9Z"/><path class="e" d="M175.008,155.82a4.931,4.931,0,0,0-4.159-5.637.5.5,0,0,0-.355.039.518.518,0,0,0-.132.478A5.97,5.97,0,0,0,175,155.965"/><path class="d" d="M168.09,164.945c1.246,2.566,3.036,4.295,5.264,4.387.439,0,.776-.276,1.2-.3a2.953,2.953,0,0,1,.706.268,1.032,1.032,0,0,0,.373.083c2.29-.123,4.242-1.733,5.558-4.426,1.829-3.777,1.263-7.831-1.263-9.063a6.433,6.433,0,0,0-1.035-.4,4.242,4.242,0,0,0-1.255-.149,9.414,9.414,0,0,0-2.873.654l-.123.044a5.846,5.846,0,0,0-5.264-.145C166.822,157.1,166.261,161.155,168.09,164.945Z"/><path class="h" d="M168.139,161.106a1.821,1.821,0,0,1-.211-.759,4.018,4.018,0,0,1,.224-1.886,4.1,4.1,0,0,1,1.057-1.584,2,2,0,0,1,.654-.439c0,.026-.237.189-.566.531a4.387,4.387,0,0,0-.978,1.553,4.448,4.448,0,0,0-.268,1.812C168.082,160.813,168.165,161.1,168.139,161.106Z"/><path class="h" d="M168.6,162.9c-.044,0-.127-.167-.18-.4s-.057-.439,0-.439.132.167.184.395S168.647,162.892,168.6,162.9Z"/><path class="f" d="M180.233,149.648c0,.031-.474.211-1.184.636a8.973,8.973,0,0,0-1.184.847,10.337,10.337,0,0,0-1.25,1.263,9.974,9.974,0,0,0-.991,1.474,8.745,8.745,0,0,0-.592,1.316c-.281.781-.36,1.316-.395,1.29a1.487,1.487,0,0,1,.039-.364,2.406,2.406,0,0,1,.083-.439,4.3,4.3,0,0,1,.154-.544,8.4,8.4,0,0,1,.566-1.364,8.932,8.932,0,0,1,2.281-2.79,8.334,8.334,0,0,1,1.228-.825c.18-.11.355-.184.5-.259a4.018,4.018,0,0,1,.395-.162A1.251,1.251,0,0,1,180.233,149.648Z"/><path class="j" d="M108.021,181.176c3.295.254,6.76.07,9.34,1.114,1.316.535,2.378,1.044,2.825,2.8.386,1.518-.825,4.049-1.952,5.155-3.286,3.237-4.562,4.751-5.47,8.357s-2.193,7.458-5.519,9.432a4.435,4.435,0,0,1-2.487.724,2.474,2.474,0,0,1-2.163-1.347,3.12,3.12,0,0,1,.575-2.6,21.348,21.348,0,0,0,2.8-7.7c.338-2.737,0-3.738-1.706-6.142-1.939-2.316-5.212-4.167-8.857-5.887l7.458-4.277Z"/><path class="f" d="M104.586,150.644s-3.685.706-5.163.342c-11.638-2.86-36.411-15.793-45.715-10.147-8.274,5.019-6.142,13.16-.877,20.013,5.163,6.751,38.06,23.821,38.06,23.821l11.033-9.037-4.268-1.917,1.553-.237a26.387,26.387,0,0,0,8.55-.241l13.928-2.711V156.053Z"/><path class="f" d="M150.771,154.974a26.763,26.763,0,0,1,6.036,15.2c.285,3.29-1.443,9.362-4.26,11.761a25.725,25.725,0,0,1-18.622,5.94l-31.147-1.535-.877-11.726s12.682-4.742,16.231-5.4l3.531-.439V156.048l15.525.842C142.133,157.15,150.771,154.974,150.771,154.974Z"/><path class="e" d="M137.795,162.466a4.429,4.429,0,0,1-.693.154c-.439.079-1.1.211-1.891.386a44.351,44.351,0,0,0-11.884,4.47c-.715.39-1.285.719-1.68.952a4.123,4.123,0,0,1-.623.342,4.053,4.053,0,0,1,.579-.439c.377-.259.939-.61,1.645-1.022a39.3,39.3,0,0,1,11.928-4.483c.8-.154,1.456-.263,1.913-.316A3.988,3.988,0,0,1,137.795,162.466Z"/><path class="e" d="M151.662,181.264a6.024,6.024,0,0,0,.614-.474A3.834,3.834,0,0,0,153.3,179a9.4,9.4,0,0,0,.154-3.11,35.3,35.3,0,0,0-.408-3.834,14.543,14.543,0,0,0-1.1-3.667,9.972,9.972,0,0,0-1.728-2.6,8.967,8.967,0,0,0-2.294-1.755.83.83,0,0,1,.193.07,4.267,4.267,0,0,1,.526.25,7.251,7.251,0,0,1,1.693,1.316,9.888,9.888,0,0,1,1.8,2.632,14.319,14.319,0,0,1,1.132,3.72,32.836,32.836,0,0,1,.395,3.86,9.326,9.326,0,0,1-.206,3.167,3.79,3.79,0,0,1-1.123,1.816,2.633,2.633,0,0,1-.487.329A.649.649,0,0,1,151.662,181.264Z"/><path class="e" d="M101.775,174.745a2.413,2.413,0,0,1,.325-.145l.952-.373c.825-.325,2.031-.763,3.509-1.316s3.286-1.132,5.3-1.728,4.233-1.22,6.6-1.755a55.713,55.713,0,0,1,12.345-1.413h1.132l1.009.053c.632.031,1.171.066,1.614.123l1.013.118a2.339,2.339,0,0,1,.351.053,1.976,1.976,0,0,1-.355,0l-1.018-.075c-.439-.044-.983-.066-1.61-.083l-1.009-.035h-1.127a58.693,58.693,0,0,0-12.261,1.5c-2.36.513-4.584,1.114-6.58,1.715s-3.8,1.18-5.3,1.68l-3.549,1.228-.965.333A1.912,1.912,0,0,1,101.775,174.745Z"/><path class="e" d="M97.2,175.329a.691.691,0,0,1-.075-.1c-.048-.079-.114-.175-.193-.3l-.733-1.145-.522-.829c-.2-.3-.439-.619-.658-.965-.483-.689-1-1.492-1.645-2.325-.32-.439-.649-.877-1-1.316s-.737-.917-1.123-1.4c-.763-.978-1.658-1.957-2.579-3a77.089,77.089,0,0,0-6.523-6.3,77.318,77.318,0,0,0-7.273-5.431c-1.18-.737-2.294-1.461-3.382-2.057-.54-.3-1.053-.614-1.562-.877l-1.47-.763c-.926-.5-1.8-.877-2.558-1.246-.382-.175-.733-.351-1.062-.5l-.9-.382-1.25-.535-.325-.145-.105-.057.114.035.333.123c.307.123.728.29,1.268.5l.912.364c.333.14.684.307,1.07.478.759.351,1.645.724,2.579,1.22l1.478.75c.513.263,1.031.575,1.575.877,1.092.592,2.193,1.316,3.4,2.049a74.888,74.888,0,0,1,7.308,5.431,74.684,74.684,0,0,1,6.528,6.326c.921,1.053,1.812,2.04,2.575,3.027.382.487.772.948,1.114,1.408l.983,1.338c.64.842,1.149,1.654,1.623,2.347.228.351.439.676.645.978l.5.842c.3.5.531.877.7,1.171.07.127.127.228.175.307S97.208,175.324,97.2,175.329Z"/><path class="e" d="M81.319,157.3a3.545,3.545,0,0,1-.36-.54c-.219-.36-.54-.877-.943-1.5a48.734,48.734,0,0,0-3.448-4.7,50.25,50.25,0,0,0-3.988-4.251c-.544-.509-.987-.921-1.316-1.2a4.156,4.156,0,0,1-.469-.439,3.255,3.255,0,0,1,.526.386c.329.254.794.649,1.351,1.145a41.017,41.017,0,0,1,4.053,4.22,40.58,40.58,0,0,1,3.409,4.76c.39.64.689,1.167.877,1.54a3.68,3.68,0,0,1,.307.57Z"/><path class="f" d="M58.007,152.662c-.057.044-.987-1.263-2.417-2.6s-2.786-2.193-2.746-2.25a3.8,3.8,0,0,1,.917.509,15.172,15.172,0,0,1,1.983,1.575,14.68,14.68,0,0,1,1.7,1.882,3.948,3.948,0,0,1,.566.882Z"/><path class="j" d="M101.937,174.745l-18.745,2.123,1.066,9.62h21.6Z"/><path class="j" d="M89.584,186.44c-2.869.083-8.392,2.588-10.335,4.457a20.892,20.892,0,0,0-4.387,6.716c-.364.82-.8,1.755-1.7,1.983a2.43,2.43,0,0,1-2.329-.908,4.387,4.387,0,0,1-.877-2.378c-.4-3.768,1.864-7.019,4.159-9.862S77,182.4,77.625,177.921c.211-1.531,1.483-3.97,2.9-4.558,1.641-.68,2.654-.154,3.856.57l4.22,2.408"/><path class="k" d="M105.854,186.489a2.413,2.413,0,0,1-.531.026h-1.439c-1.215,0-2.9.044-4.747.083s-3.54.048-4.76,0c-.605,0-1.1-.039-1.439-.066a2.388,2.388,0,0,1-.526-.061,2.11,2.11,0,0,1,.531-.026h1.439c1.215,0,2.891-.039,4.751-.079s3.536-.048,4.751,0c.61,0,1.1.039,1.443.066a2.092,2.092,0,0,1,.526.057Z"/><path class="e" d="M97.91,157.18a3.319,3.319,0,0,1,.355.544,6.638,6.638,0,0,1,.373.671c.132.263.294.562.439.912s.307.724.439,1.145.276.877.408,1.347a17.354,17.354,0,0,1,.439,6.422c-.075.491-.132.961-.232,1.391s-.189.833-.294,1.193-.215.684-.311.965a6.14,6.14,0,0,1-.281.711,3.662,3.662,0,0,1-.281.588,3.452,3.452,0,0,1,.2-.619c.07-.2.158-.439.237-.719s.2-.6.281-.965.189-.759.259-1.189.145-.877.211-1.377a18.254,18.254,0,0,0-.417-6.348c-.127-.474-.241-.926-.386-1.338s-.281-.8-.417-1.145-.281-.649-.4-.921-.233-.5-.329-.68A3.742,3.742,0,0,1,97.91,157.18Z"/><path class="e" d="M106.451,165.011a3.29,3.29,0,0,1-.083-.627,5.549,5.549,0,0,0-.083-.737c-.044-.3-.075-.61-.149-.965a19.5,19.5,0,0,0-.605-2.461,21.025,21.025,0,0,0-1.176-2.873,20.523,20.523,0,0,0-1.619-2.632,19.477,19.477,0,0,0-1.628-1.948c-.241-.272-.487-.491-.689-.693s-.39-.368-.544-.5a3.194,3.194,0,0,1-.439-.439,3.947,3.947,0,0,1,.513.373,5.566,5.566,0,0,1,.57.474c.215.193.469.408.719.671a17.221,17.221,0,0,1,1.68,1.935,18.166,18.166,0,0,1,2.8,5.571,17.943,17.943,0,0,1,.566,2.5c.066.36.083.693.114.978a6.116,6.116,0,0,1,.044.741,3.593,3.593,0,0,1,0,.636Z"/><path class="d" d="M153.052,174.552a.84.84,0,0,1-.048.123l-.162.355a10.966,10.966,0,0,1-.719,1.316,13.835,13.835,0,0,1-1.434,1.869,16.414,16.414,0,0,1-2.329,2.071A20.71,20.71,0,0,1,141,183.624a43.277,43.277,0,0,1-9.862,1.04c-7.041,0-13.406-.026-18.012-.048l-5.462-.044-1.483-.026H105.8a.509.509,0,0,1-.132,0h2l5.462-.031h18.008a43.759,43.759,0,0,0,9.813-1.013,20.78,20.78,0,0,0,7.326-3.365,16.338,16.338,0,0,0,2.334-2.027,14.15,14.15,0,0,0,1.452-1.829,12.132,12.132,0,0,0,.755-1.272l.18-.342a.849.849,0,0,1,.057-.114Z"/><path class="d" d="M155.662,166.007a21.725,21.725,0,0,1-.934,2.957,21.1,21.1,0,0,1-1.149,2.887,21.671,21.671,0,0,1,.934-2.961,20.618,20.618,0,0,1,1.149-2.882Z"/><path class="d" d="M78.678,175.118l-.1-.035-.3-.127-1.141-.5c-.987-.439-2.413-1.084-4.159-1.921s-3.808-1.878-6.023-3.167A49.285,49.285,0,0,1,60.1,164.62,39.714,39.714,0,0,1,50.637,152.9a35.92,35.92,0,0,1-1.9-4.185c-.206-.5-.325-.9-.439-1.171l-.1-.307a.188.188,0,0,0-.031-.11.359.359,0,0,1,.053.1c.031.079.07.175.123.3.11.263.246.662.439,1.158a41.794,41.794,0,0,0,1.965,4.128,40.534,40.534,0,0,0,9.471,11.625,50.48,50.48,0,0,0,6.8,4.742c2.193,1.294,4.255,2.347,5.988,3.2s3.15,1.522,4.128,1.987l1.123.54.29.145C78.647,175.1,78.682,175.114,78.678,175.118Z"/><path class="f" d="M110.57,46.847a3.439,3.439,0,0,0-6.163.531,6.01,6.01,0,0,1-.6,1.518c-.877,1.189-3.071.842-3.764,2.145-.75,1.386.983,3.044.562,4.562-.338,1.215-1.9,1.755-2.25,2.97-.474,1.6,1.456,3.185.991,4.79-.395,1.382-2.343,1.891-2.632,3.295-.338,1.549,1.57,2.808,1.54,4.387C98.217,73.071,95.12,74.19,95.4,76.2c.154,1.11,1.338,1.851,1.535,2.957.373,2.075-2.843,3.509-2.461,5.593.184.974,1.105,1.6,1.9,2.193S98,88.377,97.84,89.36s-1.294,1.557-1.908,2.4c-.948,1.285.557,4.624,2.018,5.264l6.071-4.536s-1.755-1.452-.373-2.786.478-1.93.439-2.939c0,0,1.356,1.141.877,2.329a2.952,2.952,0,0,0,.316,2.834l9.217-4.141,1-8.774Z"/><path class="f" d="M97.059,87.767a2.448,2.448,0,0,1-.592.022,3.7,3.7,0,0,1-3.3-2.527A3.887,3.887,0,0,1,93,83.587a5.264,5.264,0,0,1,.623-1.755c.3-.588.68-1.167.965-1.812a3.733,3.733,0,0,0,.355-2.11,6.173,6.173,0,0,0-1.145-2.035,2.036,2.036,0,0,1-.4-1.224,1.5,1.5,0,0,1,.684-1.136,9.134,9.134,0,0,1,1.163-.64,2.193,2.193,0,0,0,.961-.82A1.6,1.6,0,0,0,96.3,70.8a4.093,4.093,0,0,0-.605-1.215c-.263-.377-.575-.746-.833-1.158a3.259,3.259,0,0,1-.548-1.386,2.035,2.035,0,0,1,.439-1.448,6,6,0,0,1,1.145-1,7.651,7.651,0,0,0,1.136-.921,1.878,1.878,0,0,0,.553-1.237,3,3,0,0,0-.386-1.316c-.219-.439-.474-.825-.68-1.259a2.6,2.6,0,0,1-.316-1.408,1.908,1.908,0,0,1,.215-.693,3.1,3.1,0,0,1,.439-.566c.645-.658,1.47-1.105,1.816-1.869a2.154,2.154,0,0,0,.149-1.2,6.484,6.484,0,0,0-.307-1.189,5.3,5.3,0,0,1-.439-2.369,1.807,1.807,0,0,1,.5-1.062,2.215,2.215,0,0,1,.974-.562c.7-.211,1.4-.237,2.022-.39a2.29,2.29,0,0,0,1.5-.921c.325-.478.5-1.022.816-1.452a3.317,3.317,0,0,1,2.277-1.316,3.259,3.259,0,0,1,1.676.2,2.083,2.083,0,0,1,.39.2.61.61,0,0,1,.127.088,3.323,3.323,0,0,0-2.18-.395,3.251,3.251,0,0,0-2.193,1.316c-.3.439-.465.956-.8,1.461a2.457,2.457,0,0,1-1.588,1c-.645.158-1.342.193-2.009.4a2.075,2.075,0,0,0-.877.522,1.619,1.619,0,0,0-.439.961,5.089,5.089,0,0,0,.439,2.277,6.5,6.5,0,0,1,.316,1.224,2.356,2.356,0,0,1-.158,1.316c-.395.851-1.246,1.316-1.851,1.93a2.817,2.817,0,0,0-.395.522,1.667,1.667,0,0,0-.189.614,2.391,2.391,0,0,0,.3,1.285c.2.417.439.82.676,1.25a3.172,3.172,0,0,1,.417,1.43,2.115,2.115,0,0,1-.614,1.391,7.563,7.563,0,0,1-1.171.952,5.923,5.923,0,0,0-1.1.952,1.777,1.777,0,0,0-.408,1.285,2.992,2.992,0,0,0,.509,1.285c.25.4.553.759.829,1.154a4.387,4.387,0,0,1,.636,1.285,1.821,1.821,0,0,1-.114,1.413,2.426,2.426,0,0,1-1.053.9,9.691,9.691,0,0,0-1.141.623,1.281,1.281,0,0,0-.6.978,1.882,1.882,0,0,0,.364,1.105A5.912,5.912,0,0,1,95.124,77.9a3.838,3.838,0,0,1-.377,2.215c-.3.667-.68,1.241-.983,1.816a5.124,5.124,0,0,0-.623,1.724,3.707,3.707,0,0,0,.149,1.614A3.6,3.6,0,0,0,94.9,87.28a3.838,3.838,0,0,0,1.575.513A3.292,3.292,0,0,1,97.059,87.767Z"/><path class="e" d="M97.339,94.413a.439.439,0,0,1-.123-.088.654.654,0,0,1-.193-.4,1.127,1.127,0,0,1,.167-.706,1.377,1.377,0,0,1,.794-.592,10.6,10.6,0,0,1,1.2-.281,1.755,1.755,0,0,0,1.158-.746.877.877,0,0,0,.044-.737,3.431,3.431,0,0,0-.439-.724,1.825,1.825,0,0,1-.382-.877,1.649,1.649,0,0,1,.241-.969c.162-.3.36-.575.535-.877a1.781,1.781,0,0,0,.311-.948,1.413,1.413,0,0,0-.439-.917c-.246-.272-.548-.513-.812-.816A1.316,1.316,0,0,1,99,83.578,1,1,0,0,1,99.3,83a1.983,1.983,0,0,1,.526-.373c.382-.193.785-.325,1.171-.5a2.3,2.3,0,0,0,1-.706,1.439,1.439,0,0,0,.18-1.189,8.1,8.1,0,0,0-.469-1.255,5.106,5.106,0,0,1-.439-1.351,2.716,2.716,0,0,1,.237-1.439,15.066,15.066,0,0,0,1.228-2.6,2.193,2.193,0,0,0-.184-1.377,14.421,14.421,0,0,0-.746-1.294,3.172,3.172,0,0,1-.522-1.456,2.228,2.228,0,0,1,.518-1.443c.3-.408.654-.746.956-1.119a2.369,2.369,0,0,0,.605-1.215,2.154,2.154,0,0,0-.325-1.285c-.215-.4-.487-.781-.715-1.189a2.632,2.632,0,0,1-.395-1.347,2.689,2.689,0,0,1,.465-1.285c.232-.377.487-.728.667-1.1a1.711,1.711,0,0,0,.175-1.158c-.171-.776-.781-1.4-.93-2.22a1.557,1.557,0,0,1,.259-1.158,5.116,5.116,0,0,1,.755-.834,3.988,3.988,0,0,0,.671-.785,2.027,2.027,0,0,0,.25-.934c.026-.649-.118-1.277-.083-1.886a3.479,3.479,0,0,1,.518-1.623,3.347,3.347,0,0,1,2.167-1.557,3.509,3.509,0,0,1,1.7.048,2.36,2.36,0,0,1,.553.228,3.62,3.62,0,0,0-.562-.184,3.571,3.571,0,0,0-1.676,0,3.264,3.264,0,0,0-2.075,1.535,3.374,3.374,0,0,0-.483,1.562c-.031.588.118,1.206.1,1.886a2.123,2.123,0,0,1-.268,1.013,4.023,4.023,0,0,1-.693.829,4.826,4.826,0,0,0-.724.807,1.347,1.347,0,0,0-.224,1.027c.127.737.737,1.356.939,2.193a1.943,1.943,0,0,1-.184,1.29,11.137,11.137,0,0,1-.676,1.119,2.474,2.474,0,0,0-.439,1.184A2.391,2.391,0,0,0,102.5,63.1c.215.39.491.768.719,1.189a2.382,2.382,0,0,1,.351,1.417,2.606,2.606,0,0,1-.654,1.316c-.311.382-.662.724-.948,1.11a1.992,1.992,0,0,0-.474,1.316,2.926,2.926,0,0,0,.491,1.347,13.305,13.305,0,0,1,.755,1.316,2.452,2.452,0,0,1,.2,1.518,13.884,13.884,0,0,1-1.246,2.632,2.5,2.5,0,0,0-.224,1.316,5.111,5.111,0,0,0,.4,1.29,7.87,7.87,0,0,1,.474,1.316,1.628,1.628,0,0,1-.215,1.356,2.478,2.478,0,0,1-1.088.776c-.395.171-.794.307-1.158.487a1.184,1.184,0,0,0-.733.807,1.163,1.163,0,0,0,.36,1c.25.285.548.526.807.816a1.623,1.623,0,0,1,.483,1.035,1.987,1.987,0,0,1-.347,1.04c-.18.3-.382.575-.54.877a1.509,1.509,0,0,0-.228.877,1.689,1.689,0,0,0,.347.8,3.431,3.431,0,0,1,.439.763,1,1,0,0,1-.061.842,1.891,1.891,0,0,1-1.246.79c-.439.1-.855.14-1.2.259a1.316,1.316,0,0,0-.763.544,1.084,1.084,0,0,0-.175.667.689.689,0,0,0,.307.5Z"/><path class="d" d="M151.447,154.974l-7.637-25.444,2.382-40.359A41.206,41.206,0,0,0,127.328,84.1l-13.16.991L99.651,92.338l3.071,24.4,4.931,21.057-3.04,12.875C117.01,159.575,133.518,160.558,151.447,154.974Z"/><path class="d" d="M139.94,112.7s14.854.763,14.854-.465a51.6,51.6,0,0,0-2.9-15.2c-1.61-4.2-4.387-7.3-5.878-7.931C142.572,87.623,139.94,112.7,139.94,112.7Z"/><path class="d" d="M99.84,92.194s-2.8,2.329-5.756,9.331c-3.509,8.3-4.514,10.015-4.514,10.015l8.8,11.906,4.782-5.361Z"/><path class="f" d="M107.627,137.768a.241.241,0,0,0-.035-.1,1.638,1.638,0,0,1-.079-.29c-.07-.272-.162-.649-.281-1.119-.241-.974-.575-2.386-.974-4.132-.8-3.509-1.851-8.335-2.983-13.678l-2.9-13.7c-.373-1.733-.68-3.145-.877-4.146-.1-.478-.175-.851-.232-1.132-.022-.118-.039-.215-.057-.294v-.1a.267.267,0,0,1,.035.1c.022.079.048.171.079.29q.105.412.276,1.119c.237.974.566,2.386.965,4.137.794,3.509,1.838,8.335,2.965,13.683s2.167,10.169,2.917,13.691c.377,1.755.684,3.15.9,4.15.1.474.18.851.237,1.127l.057.294a.294.294,0,0,1-.018.1Z"/><g class="g"><path d="M142.195,87.18A9.576,9.576,0,0,0,130,89.255l-.2-1.492c-.123,1.614-1.421,3.435-1.241,4.488a2.428,2.428,0,0,0,2.11,2.075c1.509.061,2.891-1.628,4.29-1.062.465.184.807.6,1.263.807,1.022.474,2.193-.184,3.1-.838q1.579-1.119,3.1-2.321a2.666,2.666,0,0,0,1.233-1.7C143.721,88.338,142.954,87.627,142.195,87.18Z"/></g><path class="f" d="M144.265,89.93a10.484,10.484,0,0,0-2.465,2.193,11.3,11.3,0,0,0-1.693,3.154,37.139,37.139,0,0,0-1.2,4.26,26.277,26.277,0,0,0-.583,4.387c-.083,1.36-.11,2.588-.154,3.619s-.083,1.864-.136,2.443c-.022.285-.053.509-.07.662a.825.825,0,0,1-.039.228.877.877,0,0,1,0-.233,6.439,6.439,0,0,1,.026-.667c.022-.575.044-1.408.066-2.439s.031-2.264.1-3.628a25.084,25.084,0,0,1,.575-4.418,35.624,35.624,0,0,1,1.22-4.282,11.239,11.239,0,0,1,1.755-3.18,8.436,8.436,0,0,1,1.807-1.658c.241-.162.439-.263.575-.342a.693.693,0,0,1,.215-.1Z"/><path class="f" d="M131.8,146.547a1.316,1.316,0,0,1-.219-.026l-.627-.114c-.544-.1-1.316-.272-2.29-.5a73.6,73.6,0,0,1-7.409-2.193,74.912,74.912,0,0,1-7.146-2.952c-.877-.439-1.606-.79-2.093-1.048l-.562-.307a.878.878,0,0,1-.189-.118.658.658,0,0,1,.211.079l.579.263c.5.241,1.224.579,2.123.983,1.8.816,4.312,1.878,7.151,2.887s5.462,1.755,7.374,2.259c.956.246,1.733.439,2.268.57l.619.158a.658.658,0,0,1,.211.066Z"/><path class="f" d="M132.829,141.546a1.206,1.206,0,0,1-.228.031l-.654.053c-.57.039-1.4.075-2.413.092A63.883,63.883,0,0,1,113.742,140c-.991-.237-1.79-.439-2.338-.61l-.627-.193a.877.877,0,0,1-.215-.079.8.8,0,0,1,.228.035l.64.149c.548.136,1.351.325,2.347.54a73.633,73.633,0,0,0,15.766,1.72c1.018,0,1.838,0,2.408-.022h.658A.773.773,0,0,1,132.829,141.546Z"/><g class="g"><path d="M145.7,137.549c-.79-1.29-2.334-1.86-3.751-2.4A63.53,63.53,0,0,1,121.208,122.3c-2.865-2.663-5.589-5.663-9.186-7.2s-8.445-1.079-10.559,2.215l1.316.877c6.633,2.193,11.037,8.291,15.823,13.384a140.437,140.437,0,0,0,11.616,10.638c2.571,2.193,5.444,4.483,8.818,4.483a7.458,7.458,0,0,0,7.12-6.106A4.532,4.532,0,0,0,145.7,137.549Z"/></g><path class="j" d="M78.27,73.58H77.125a2.5,2.5,0,0,0-2.263,1.439h0a2.492,2.492,0,0,0,.167,2.426l1.755,2.742a2.608,2.608,0,0,0-1.263,2.869s-1.158.706-.553,3.071a4.121,4.121,0,0,0,.167,3.36c.934,1.377,3.909,6.655,3.909,6.655v5.834l7.9-.912V94.317a9.726,9.726,0,0,0,1.167-3.023c.333-1.706-.934-8.247-.934-8.247l-3.632-4.189-4.071-1.6a2.058,2.058,0,0,0-.259,1.465,1.89,1.89,0,0,0,.092.294l-.605-.276-1.36-2.474V75.94S80.683,75.19,79.4,74A1.755,1.755,0,0,0,78.27,73.58Z"/><path class="k" d="M83.258,89.167a.831.831,0,0,1,.193.333,1.829,1.829,0,0,1,.053,1.057.877.877,0,0,1-.491.579,1.263,1.263,0,0,1-.877.039,3.283,3.283,0,0,1-1.417-1.281,2.877,2.877,0,0,0-.676-.636,1.316,1.316,0,0,0-.8-.2l-1.527.092a8.735,8.735,0,0,1-1.413.031,8.7,8.7,0,0,1,1.4-.189c.439-.044.948-.1,1.531-.145a1.522,1.522,0,0,1,.93.219,2.952,2.952,0,0,1,.733.689c.412.522.785,1.057,1.316,1.22a1.114,1.114,0,0,0,.737,0,.719.719,0,0,0,.412-.439,1.917,1.917,0,0,0,0-.983C83.31,89.294,83.24,89.176,83.258,89.167Z"/><path class="f" d="M80.319,79.805c0,.026-.175,0-.4-.132a1.685,1.685,0,0,1-.79-1.8c.057-.263.154-.4.18-.386a3.106,3.106,0,0,0,.136,1.316,3.071,3.071,0,0,0,.877,1Z"/><path class="k" d="M79.639,88.9c.026,0,.044.184-.026.474a2.5,2.5,0,0,1-.526,1.013,2.553,2.553,0,0,1-.921.68c-.272.114-.439.127-.465.1A3.681,3.681,0,0,0,79.639,88.9Z"/><path class="k" d="M84.5,93.488A5.821,5.821,0,0,0,82.968,92.1a5.659,5.659,0,0,0-2-.54,1.211,1.211,0,0,1,.632-.079,3.479,3.479,0,0,1,2.632,1.434A1.263,1.263,0,0,1,84.5,93.488Z"/><path class="l" d="M84.565,89.241A5.7,5.7,0,0,1,85.205,91a6.269,6.269,0,0,1,.114,1.825c-.162.991-.619,3.808.026,4.47s4.988,4.225,4.988,4.225h2.733s-5.549-3.426-6.3-5.729-.026-3.536-.4-4.97A38.6,38.6,0,0,0,84.5,86.193L78.16,75.756,77.112,76Z"/><path class="f" d="M84.565,89.241s-.057-.079-.149-.237-.237-.4-.408-.693l-1.535-2.667-5.448-9.585-.066-.114.127-.031,1.044-.246h.07l.039.061L84.6,86.162h0c.522,1.119,1.053,2.307,1.518,3.549a6.116,6.116,0,0,1,.474,1.957c0,.676-.075,1.316-.066,1.957a6.817,6.817,0,0,0,.268,1.864,4.093,4.093,0,0,0,.877,1.584A18.1,18.1,0,0,0,90.3,99.5c.93.711,1.864,1.364,2.79,1.948l.3.189H90.268l-.026-.022c-1.72-1.426-3.295-2.724-4.646-3.926a2.193,2.193,0,0,1-.469-.509,2.049,2.049,0,0,1-.175-.645,6.814,6.814,0,0,1-.022-1.228,20.955,20.955,0,0,1,.25-2.136,4.65,4.65,0,0,0,0-1.7,6.4,6.4,0,0,0-.263-1.237,5.757,5.757,0,0,0-.25-.737,2.521,2.521,0,0,1-.114-.246,4.193,4.193,0,0,1,.439.956,6.579,6.579,0,0,1,.294,1.241,4.874,4.874,0,0,1,0,1.733c-.092.64-.189,1.347-.228,2.123a7.018,7.018,0,0,0,.035,1.206,1.834,1.834,0,0,0,.167.592,2.022,2.022,0,0,0,.439.439c1.36,1.189,2.944,2.483,4.668,3.9h2.672l-.053.189q-1.408-.877-2.816-1.957a18.013,18.013,0,0,1-2.689-2.452,4.3,4.3,0,0,1-.93-1.667,7.186,7.186,0,0,1-.276-1.921c0-.654.083-1.316.066-1.948A5.742,5.742,0,0,0,85.9,89.79c-.461-1.228-.991-2.417-1.509-3.509h0l-6.3-10.463.11.044-1.048.241.061-.14,5.378,9.651L84.069,88.3l.386.711C84.525,89.154,84.565,89.241,84.565,89.241Z"/><path class="j" d="M76.607,80.551a3.365,3.365,0,0,1,2.847-1.027A5.6,5.6,0,0,1,82.3,80.757a17.713,17.713,0,0,1,2.237,2.193,3.773,3.773,0,0,1,1.048,1.671,1.292,1.292,0,0,1-.877,1.557c-.654.1-1.167-.439-1.61-.93a10.764,10.764,0,0,0-2.035-1.693,3.65,3.65,0,0,0-1.5-.636,4.431,4.431,0,0,0-1.948.347"/><path class="k" d="M77.616,83.28a1.189,1.189,0,0,1,.2-.092,6.2,6.2,0,0,1,.6-.2,3.391,3.391,0,0,1,1-.132,2.974,2.974,0,0,1,1.281.4,10.989,10.989,0,0,1,2.689,2.158,2.817,2.817,0,0,0,.755.579.877.877,0,0,0,.877-.048,1.22,1.22,0,0,0,.465-.833,1.684,1.684,0,0,0-.211-1,10.116,10.116,0,0,0-1.351-1.667,15.512,15.512,0,0,0-1.439-1.413,5.751,5.751,0,0,0-3.009-1.43,3.6,3.6,0,0,0-2.193.439,5.96,5.96,0,0,0-.671.5.824.824,0,0,1,.136-.175,2.663,2.663,0,0,1,.491-.4,3.571,3.571,0,0,1,2.255-.526,5.874,5.874,0,0,1,3.132,1.43A15.376,15.376,0,0,1,84.091,82.3a9.888,9.888,0,0,1,1.391,1.711,1.847,1.847,0,0,1,.233,1.132,1.434,1.434,0,0,1-.562.987,1.092,1.092,0,0,1-1.1.061,2.908,2.908,0,0,1-.812-.627A11.38,11.38,0,0,0,80.612,83.4a2.878,2.878,0,0,0-1.206-.439,3.382,3.382,0,0,0-.974.092A5.817,5.817,0,0,1,77.616,83.28Z"/><path class="j" d="M76.4,85.863c1.391.333,2.961,0,4.185.733a5.334,5.334,0,0,1,1.084.93L83.587,89.5c.351.364.833.759,1.316.526a.776.776,0,0,0,.4-.583,1.97,1.97,0,0,0-.329-1.241,26.569,26.569,0,0,0-1.5-2.452,7.515,7.515,0,0,0-.943-1.127,6.194,6.194,0,0,0-1.935-1.4,3.457,3.457,0,0,0-2.724,0"/><path class="k" d="M77.871,83.231a.808.808,0,0,1,.193-.105,2.584,2.584,0,0,1,.605-.193,4.141,4.141,0,0,1,2.294.368,6.431,6.431,0,0,1,1.316.952,7.269,7.269,0,0,1,1.241,1.373c.373.531.746,1.1,1.105,1.706.18.3.355.619.522.943a1.978,1.978,0,0,1,.29,1.114.961.961,0,0,1-.246.566.8.8,0,0,1-.566.259,1.513,1.513,0,0,1-1-.526l-1.413-1.461c-.439-.439-.877-.926-1.285-1.285a3.163,3.163,0,0,0-1.391-.658c-.948-.189-1.755-.162-2.29-.246a5.7,5.7,0,0,1-.623-.11.75.75,0,0,1-.211-.066s.3.048.842.088a19.668,19.668,0,0,1,2.312.175,3.281,3.281,0,0,1,1.478.667c.439.373.877.833,1.316,1.29l1.413,1.443a1.347,1.347,0,0,0,.842.439.64.64,0,0,0,.588-.623,1.755,1.755,0,0,0-.263-.987c-.162-.316-.338-.627-.513-.93-.355-.6-.724-1.171-1.084-1.7a7.5,7.5,0,0,0-1.2-1.351,6.352,6.352,0,0,0-1.25-.948,4.242,4.242,0,0,0-2.193-.439A7.266,7.266,0,0,0,77.871,83.231Z"/><path class="k" d="M78.937,75.4a4.659,4.659,0,0,1-1.6.649,3.707,3.707,0,0,1-1.715.167c0-.066.755-.14,1.658-.39A10.909,10.909,0,0,1,78.937,75.4Z"/><path class="j" d="M88.855,111.645l-1.886-11.366-7.9,1.456s.412,15.494.79,19.3c.61,6.177,3.667,12.722,8.335,11.564,4.356-1.084,9.5-10.186,9.5-10.186Z"/><path class="f" d="M128.482,47.588a1,1,0,0,0,1.492,0,3.071,3.071,0,0,0,.6-1.592,2.527,2.527,0,0,1,.684-1.544c.439-.373,1.259-.32,1.448.224a1.365,1.365,0,0,1,1.689-1.658,1.978,1.978,0,0,1,3.913.026,1.347,1.347,0,0,1,2.3,1.2,1.834,1.834,0,0,1,1.277,2.715,1.755,1.755,0,0,1,.82,3.2,1.544,1.544,0,0,1-1.483,2.132,2.443,2.443,0,0,1-3.338.847,7.089,7.089,0,0,1-6.721-.864"/><path class="j" d="M128.947,53.62a2.733,2.733,0,0,0-2.632-2.6l-14.727-2.667c-4.668-.171-7.357,5.747-7.33,10.419.026,5.19.268,11.524,1.145,15.354,1.755,7.668,7.773,8.247,7.773,8.247s.057,2.4.219,5.782a8.181,8.181,0,0,0,8.813,7.765h0a8.177,8.177,0,0,0,7.532-8.335Z"/><path class="f" d="M106.872,64.3a1,1,0,0,0,1.027.939.956.956,0,0,0,.965-.969,1,1,0,0,0-1.027-.939.956.956,0,0,0-.965.97Z"/><path class="f" d="M105.977,61.468c.132.123.847-.487,1.917-.557s1.891.408,2,.272c.053-.066-.088-.29-.439-.513a2.711,2.711,0,0,0-1.61-.382,2.632,2.632,0,0,0-1.518.61C106.008,61.17,105.916,61.416,105.977,61.468Z"/><path class="f" d="M116.887,64a1,1,0,0,0,1.027.934.952.952,0,0,0,.965-.965,1,1,0,0,0-1.027-.939.956.956,0,0,0-.965.969Z"/><path class="f" d="M116.545,61.446c.132.123.851-.487,1.917-.557s1.891.412,2,.272c.053-.061-.088-.285-.439-.513a2.746,2.746,0,0,0-1.61-.377,2.632,2.632,0,0,0-1.518.605C116.576,61.152,116.479,61.416,116.545,61.446Z"/><path class="f" d="M113.207,69.65a6.966,6.966,0,0,0-1.755-.193c-.276,0-.54-.048-.6-.228a1.4,1.4,0,0,1,.127-.825q.316-1.022.667-2.136a35.951,35.951,0,0,0,1.439-5.567,36.279,36.279,0,0,0-1.886,5.44l-.654,2.145a1.61,1.61,0,0,0-.066,1.084.693.693,0,0,0,.5.382,1.965,1.965,0,0,0,.439,0A6.741,6.741,0,0,0,113.207,69.65Z"/><path class="k" d="M113.18,82.363a19.78,19.78,0,0,0,10.195-3.483s-2.255,5.51-10.063,5.317Z"/><path class="f" d="M115.847,58.7c.123.285,1.184.075,2.448.136s2.307.338,2.452.066c.066-.127-.127-.39-.557-.645a4.15,4.15,0,0,0-1.851-.509,4.031,4.031,0,0,0-1.882.355C116.005,58.319,115.812,58.56,115.847,58.7Z"/><path class="f" d="M106.2,58.845c.2.233.921-.07,1.807-.145s1.649.053,1.8-.215c.07-.127-.066-.364-.408-.57a2.632,2.632,0,0,0-2.913.29C106.188,58.476,106.1,58.735,106.2,58.845Z"/><path class="f" d="M109.7,48.22c-.439.961,1.421,2.737,2.43,3.071s2.316.162,2.86,1.079c.623,1.04-.645,2.72,1.461,3.852.667.355,1.636-.395,2.193.114.689.632-.211,1.72-.18,2.632.057,1.807,3.356,1.952,3.575,3.746.136,1.132-1.127,2.193-.689,3.255s2.255.983,2.7,2.053c.575,1.382-1.755,2.575-1.47,4.04s2.72,1.452,3.207,2.847c.417,1.193-.926,2.5-.469,3.672.522,1.347,2.794,1.149,3.4,2.457.737,1.579-1.755,3.4-.912,4.922.281.509.93.689,1.316,1.127a4.867,4.867,0,0,1-.149,5.76h.912a8.3,8.3,0,0,0,6.857-3.834h0l.759,1.755a18.86,18.86,0,0,0,6.273-4A3.909,3.909,0,0,1,147.319,86l.54.145a9.205,9.205,0,0,0,5.119-1.592c-1.794-.36-2.759-2.316-3.207-4.089s-.719-3.751-2.062-5c-1.452-1.351-3.97-1.654-4.637-3.509-.526-1.465.439-3.137-.022-4.619s-2.237-2.233-2.917-3.65c-.926-1.93.412-4.483-.768-6.269-1.277-1.943-4.7-1.658-5.672-3.773-.531-1.171-.1-2.755-1.022-3.65-.741-.715-2-.6-2.777-1.272-1.141-.987-.583-3.018-1.575-4.154-1.338-1.535-4.084-.18-5.8-1.272-1.084-.689-1.443-2.171-2.514-2.878-1.452-.965-3.356-.1-5,.478-1.272.439-2.61.7-3.847,1.241a4.951,4.951,0,0,0-2.834,2.715,2.666,2.666,0,0,0,1.386,3.36"/><path class="f" d="M150.587,78.371a.654.654,0,0,1,.127.11c.083.079.206.193.355.351a4.493,4.493,0,0,1,.518.632,2.4,2.4,0,0,1,.439,1.031,1.724,1.724,0,0,1-.4,1.316,1.162,1.162,0,0,1-.715.395,1.141,1.141,0,0,1-.842-.254,2.632,2.632,0,0,1-.737-1.755,19.307,19.307,0,0,1,0-2.132c.039-.746.105-1.527.211-2.334.053-.4.118-.816.189-1.233a4.826,4.826,0,0,0,.079-1.259,1.369,1.369,0,0,0-.579-1.062,2.044,2.044,0,0,0-1.268-.232,12.591,12.591,0,0,1-1.43.07,1.755,1.755,0,0,1-1.347-.645,2.584,2.584,0,0,1-.469-1.465,7.868,7.868,0,0,1,.118-1.54,5.753,5.753,0,0,0,.048-1.527,1.847,1.847,0,0,0-.733-1.268,8.69,8.69,0,0,0-1.43-.711,2.737,2.737,0,0,1-1.259-1.123,6.517,6.517,0,0,1-.535-3.343,9.967,9.967,0,0,0-.083-1.667,3.391,3.391,0,0,0-.583-1.492,6.4,6.4,0,0,0-2.7-1.68,7.387,7.387,0,0,1-1.413-.776,2.667,2.667,0,0,1-.956-1.29,8.27,8.27,0,0,1-.224-1.531,1.908,1.908,0,0,0-.548-1.272,2.632,2.632,0,0,0-1.281-.518,7.041,7.041,0,0,1-1.4-.342,1.9,1.9,0,0,1-1.031-.974,4.005,4.005,0,0,1-.276-1.316,5.58,5.58,0,0,0-.439-2.43,3.351,3.351,0,0,0-1.755-1.386,6.278,6.278,0,0,0-2.053-.395c-.667-.035-1.316-.026-1.891-.053a8.546,8.546,0,0,1-1.645-.193,4.668,4.668,0,0,1-1.316-.518,3.071,3.071,0,0,1-1.316-1.386,1.755,1.755,0,0,1-.171-.649,4.156,4.156,0,0,0,.211.627,3.071,3.071,0,0,0,1.316,1.316,4.558,4.558,0,0,0,1.294.522,8.774,8.774,0,0,0,1.628.171c.588,0,1.22,0,1.9.035a6.506,6.506,0,0,1,2.1.386,3.509,3.509,0,0,1,1.847,1.452,5.738,5.738,0,0,1,.478,2.5,3.917,3.917,0,0,0,.263,1.268,1.706,1.706,0,0,0,.93.877,7.252,7.252,0,0,0,1.36.325,2.794,2.794,0,0,1,1.382.562,2.1,2.1,0,0,1,.619,1.4,8.6,8.6,0,0,0,.219,1.492,2.487,2.487,0,0,0,.877,1.18,6.883,6.883,0,0,0,1.373.746c.487.219.991.439,1.478.689a3.948,3.948,0,0,1,1.316,1.062,3.549,3.549,0,0,1,.627,1.588,9.727,9.727,0,0,1,.088,1.711,6.529,6.529,0,0,0,.5,3.224,2.483,2.483,0,0,0,1.163,1.031,8.985,8.985,0,0,1,1.465.737,2.053,2.053,0,0,1,.812,1.417,5.606,5.606,0,0,1-.048,1.584,7.7,7.7,0,0,0-.118,1.5,2.408,2.408,0,0,0,.417,1.342,1.571,1.571,0,0,0,1.2.57,12.578,12.578,0,0,0,1.4-.066,2.237,2.237,0,0,1,1.391.272,1.557,1.557,0,0,1,.658,1.2,4.979,4.979,0,0,1-.088,1.316c-.075.439-.136.82-.193,1.224-.11.8-.184,1.579-.224,2.321a19.088,19.088,0,0,0-.031,2.11,2.562,2.562,0,0,0,.671,1.671.978.978,0,0,0,1.395-.118,1.619,1.619,0,0,0,.4-1.241,2.382,2.382,0,0,0-.39-1.009,5.24,5.24,0,0,0-.491-.636l-.338-.364a.781.781,0,0,1-.118-.162Z"/><path class="e" d="M133.61,89.6l.211-.092c.14-.061.351-.145.61-.276a2.382,2.382,0,0,0,.829-.667,1.316,1.316,0,0,0,.154-1.351,1.075,1.075,0,0,0-.658-.478c-.29-.092-.61-.127-.939-.241a1.184,1.184,0,0,1-.465-.276.877.877,0,0,1-.224-.526,2.193,2.193,0,0,1,.39-1.088A2.5,2.5,0,0,0,133.9,83.5a2.294,2.294,0,0,0-.228-1.206,2.246,2.246,0,0,0-2.224-1.189h-.092v-.1a3.176,3.176,0,0,1,.632-1.939,11.786,11.786,0,0,0,1.123-1.79,2.79,2.79,0,0,0,.241-1.031,1.448,1.448,0,0,0-.325-.983c-.474-.562-1.316-.689-2.022-1.027a1.755,1.755,0,0,1-.93-.838,1.724,1.724,0,0,1,0-1.272,7.283,7.283,0,0,0,.755-2.325,1.834,1.834,0,0,0-.469-1.092,4,4,0,0,0-.969-.794A19.29,19.29,0,0,1,127.1,66.6a2.369,2.369,0,0,1-.877-1.413,3.536,3.536,0,0,1,.158-1.636c.145-.518.329-1.013.439-1.518a2.694,2.694,0,0,0,.061-.746,1.57,1.57,0,0,0-.232-.676,2.167,2.167,0,0,0-1.18-.812,8.743,8.743,0,0,1-1.413-.557,1.794,1.794,0,0,1-.877-1.224,3.737,3.737,0,0,1,.083-1.47c.1-.465.215-.917.272-1.369a2.571,2.571,0,0,0-.11-1.316,2.066,2.066,0,0,0-.825-.93,4.352,4.352,0,0,0-1.154-.483c-.8-.215-1.628-.281-2.382-.557a3.04,3.04,0,0,1-1.057-.57,3.071,3.071,0,0,1-.68-.877c-.338-.649-.518-1.316-.79-1.886a3.465,3.465,0,0,0-1.1-1.391,3.338,3.338,0,0,0-2.72-.592,3.54,3.54,0,0,0-1.6.838,5.005,5.005,0,0,0-.439.469,2.308,2.308,0,0,1,.408-.5,3.457,3.457,0,0,1,1.61-.877,3.417,3.417,0,0,1,2.816.575,3.562,3.562,0,0,1,1.154,1.426c.285.592.469,1.255.8,1.878a2.917,2.917,0,0,0,.645.842,3.045,3.045,0,0,0,.969.544c.724.263,1.54.32,2.369.535a4.505,4.505,0,0,1,1.211.5,2.281,2.281,0,0,1,.9,1.022,2.746,2.746,0,0,1,.132,1.4c-.057.469-.175.926-.272,1.386a3.593,3.593,0,0,0-.079,1.382,1.575,1.575,0,0,0,.785,1.079,9,9,0,0,0,1.377.54,2.369,2.369,0,0,1,1.294.877,1.755,1.755,0,0,1,.268.776,3.325,3.325,0,0,1-.061.812c-.105.531-.29,1.027-.439,1.535a3.339,3.339,0,0,0-.154,1.531,2.158,2.158,0,0,0,.816,1.281,19.429,19.429,0,0,0,2.264,1.316,4.211,4.211,0,0,1,1.027.842,2.079,2.079,0,0,1,.518,1.224,7.129,7.129,0,0,1-.768,2.4,1.54,1.54,0,0,0,0,1.119,1.584,1.584,0,0,0,.82.733c.351.162.728.276,1.1.439a2.474,2.474,0,0,1,1,.658,1.654,1.654,0,0,1,.369,1.123,3.027,3.027,0,0,1-.263,1.105,11.966,11.966,0,0,1-1.145,1.816,2.974,2.974,0,0,0-.61,1.821l-.1-.083a2.413,2.413,0,0,1,2.391,1.316,2.479,2.479,0,0,1-.175,2.452,2.132,2.132,0,0,0-.382,1.009.79.79,0,0,0,.6.693c.307.11.632.154.93.25a1.184,1.184,0,0,1,.715.54,1.2,1.2,0,0,1,.1.8,1.557,1.557,0,0,1-.281.649,2.43,2.43,0,0,1-.877.667,5.347,5.347,0,0,1-.851.285Z"/><path class="e" d="M146.082,85.543a2.86,2.86,0,0,0,.32-.61,2.487,2.487,0,0,0-.123-1.9,2.246,2.246,0,0,0-.969-.983,6.3,6.3,0,0,1-.7-.439,1.184,1.184,0,0,1-.478-.772c-.092-.662.364-1.25.351-1.913a1.092,1.092,0,0,0-.461-.851,4.689,4.689,0,0,0-.978-.513,4.423,4.423,0,0,1-1.053-.575,1.724,1.724,0,0,1-.632-1.1,14.727,14.727,0,0,1,.154-2.632A2.071,2.071,0,0,0,141.19,72a2.413,2.413,0,0,0-1.11-.768,12.721,12.721,0,0,1-1.36-.575,1.706,1.706,0,0,1-.934-1.224,5.853,5.853,0,0,1,.075-1.57,1.829,1.829,0,0,0-.276-1.426,3.124,3.124,0,0,0-1.342-.755,2.72,2.72,0,0,1-1.4-.939,2.514,2.514,0,0,1-.294-1.693,10.194,10.194,0,0,1,.439-1.667,4.286,4.286,0,0,0,.219-1.654,1.917,1.917,0,0,0-.842-1.36,4.918,4.918,0,0,0-1.606-.557c-.566-.11-1.141-.2-1.7-.364a3.351,3.351,0,0,1-1.522-.842,3.882,3.882,0,0,1-.877-1.474c-.342-1.079-.439-2.193-.658-3.207a5.746,5.746,0,0,0-.5-1.461,2.764,2.764,0,0,0-1.013-1.057,5.418,5.418,0,0,0-2.86-.3,6.607,6.607,0,0,1-1.443-.044,2.9,2.9,0,0,1-1.316-.548,9.041,9.041,0,0,1-1.641-2.062,5.2,5.2,0,0,0-.79-.921,4.527,4.527,0,0,0-.961-.64,5.558,5.558,0,0,0-4-.232,7.9,7.9,0,0,0-2.694,1.522,12.72,12.72,0,0,0-1.4,1.386l-.333.395c-.075.088-.118.132-.118.132a.8.8,0,0,1,.1-.145c.07-.1.175-.233.32-.408a11.174,11.174,0,0,1,1.382-1.426,7.936,7.936,0,0,1,2.711-1.579,5.7,5.7,0,0,1,4.128.211,4.58,4.58,0,0,1,1,.658,5.308,5.308,0,0,1,.82.948A9.2,9.2,0,0,0,121,48.365a2.737,2.737,0,0,0,1.22.5,6.449,6.449,0,0,0,1.4.039c.483-.026.974-.07,1.478-.048a3.373,3.373,0,0,1,1.5.364,2.979,2.979,0,0,1,1.1,1.136,5.962,5.962,0,0,1,.526,1.522,30.711,30.711,0,0,0,.658,3.176,3.619,3.619,0,0,0,.812,1.386,3.071,3.071,0,0,0,1.426.785c.54.158,1.11.246,1.68.36a4.992,4.992,0,0,1,1.685.592,2.132,2.132,0,0,1,.948,1.518,4.571,4.571,0,0,1-.228,1.755,9.751,9.751,0,0,0-.417,1.628,2.29,2.29,0,0,0,.259,1.544,2.527,2.527,0,0,0,1.29.877,3.273,3.273,0,0,1,1.434.825,1.553,1.553,0,0,1,.329.776,3.58,3.58,0,0,1,0,.812,5.7,5.7,0,0,0-.083,1.5,1.5,1.5,0,0,0,.829,1.084,11.653,11.653,0,0,0,1.316.566,2.672,2.672,0,0,1,1.193.842,2.316,2.316,0,0,1,.342,1.347,15.424,15.424,0,0,0-.171,2.593,1.562,1.562,0,0,0,.566,1,4.22,4.22,0,0,0,1.013.557,4.741,4.741,0,0,1,1.009.54,1.255,1.255,0,0,1,.509.969c0,.737-.439,1.316-.373,1.9a1.079,1.079,0,0,0,.439.7,6.379,6.379,0,0,0,.68.439,2.277,2.277,0,0,1,1,1.035,2.514,2.514,0,0,1,.088,1.957A1.755,1.755,0,0,1,146.082,85.543Z"/><path class="k" d="M114.58,73.129a1.4,1.4,0,0,1,1.724-2.079,2.242,2.242,0,0,1,.855.8,1.5,1.5,0,0,1,.325,1.154,1.211,1.211,0,0,1-.636.728,1.856,1.856,0,0,1-1.487.127,1.619,1.619,0,0,1-1.013-1.075"/><path class="f" d="M117.093,70.839c.088.022.123.281,0,.676a2.72,2.72,0,0,1-2.452,1.812c-.412,0-.649-.11-.645-.2,0-.193.921-.268,1.755-.877S116.909,70.79,117.093,70.839Z"/><path class="d" d="M89.369,100.652a1.992,1.992,0,0,1,.5-1.943,2.961,2.961,0,0,1,1.886-.833,3.211,3.211,0,0,1,1.8.329,2.193,2.193,0,0,1,.6,3.536,3.115,3.115,0,0,1-2.062.948,2.558,2.558,0,0,1-1.838-.513,2.22,2.22,0,0,1-.877-1.522"/><path class="e" d="M82.8,103.091c-2.6.684-5.444-2.031-6.234-3.882a.658.658,0,0,1-.031-.61.671.671,0,0,1,.619-.193,6.177,6.177,0,0,1,5.646,4.685"/><path class="d" d="M79.722,101.9a1.974,1.974,0,0,1,.5-1.939,2.979,2.979,0,0,1,1.886-.838,3.229,3.229,0,0,1,1.8.333,2.193,2.193,0,0,1,.6,3.509,3.1,3.1,0,0,1-2.066.948,2.566,2.566,0,0,1-1.834-.509,2.193,2.193,0,0,1-.877-1.527"/><path class="e" d="M93.383,101.38a8.434,8.434,0,0,1,1.443-4.3A6.773,6.773,0,0,1,97.9,94.4a.29.29,0,0,1,.465.184,4.856,4.856,0,0,1-4.975,6.791"/><path class="e" d="M102.8,98.265a12.934,12.934,0,0,0,1.237-2.044,4.387,4.387,0,0,0,.408-2.329.408.408,0,0,0-.154-.311.412.412,0,0,0-.338,0,7.313,7.313,0,0,0-5.15,6.813l-.044.395a5.637,5.637,0,0,0,4.216.29,8.725,8.725,0,0,0,3.119-1.522,4.672,4.672,0,0,0,1.755-2.935,6.247,6.247,0,0,0-5.049,1.645Z"/><path class="e" d="M86.192,97.243a9.4,9.4,0,0,0-4.856-1.992,6.664,6.664,0,0,0,6.466,6.962l.088-.2A4.905,4.905,0,0,0,86.192,97.243Z"/><path class="l" d="M77.366,101.88s3.071,10.528,9.168,14.257c7.966,4.869,19.943-1.61,20.96-4.159s2.8-12.9,2.8-12.9Z"/><path class="f" d="M77.366,101.88h.154l.469-.048,1.834-.167,6.87-.619,23.592-2.057h.145l-.026.14c-.562,3.185-1.176,6.554-1.974,9.993-.175.728-.347,1.448-.566,2.158-.053.18-.114.355-.175.531-.035.088-.061.175-.1.263a2.084,2.084,0,0,1-.136.259,4.716,4.716,0,0,1-.733.851,16.161,16.161,0,0,1-3.6,2.373,24.774,24.774,0,0,1-3.865,1.535,21.386,21.386,0,0,1-3.9.82,14.7,14.7,0,0,1-7.265-.851,12.954,12.954,0,0,1-5.036-3.909,26.625,26.625,0,0,1-2.9-4.413,37.761,37.761,0,0,1-1.676-3.619c-.412-1.013-.684-1.821-.877-2.369-.092-.272-.154-.483-.193-.623s-.057-.224-.057-.219a1.954,1.954,0,0,1,.079.211c.048.149.123.355.215.619.193.54.478,1.342.9,2.347a38.883,38.883,0,0,0,1.706,3.593,26.7,26.7,0,0,0,2.913,4.387,12.88,12.88,0,0,0,5.005,3.79,14.534,14.534,0,0,0,7.172.816,23.448,23.448,0,0,0,7.686-2.347,15.748,15.748,0,0,0,3.545-2.338,4.79,4.79,0,0,0,.693-.8l.118-.228c.035-.083.061-.171.092-.254.057-.171.123-.342.171-.518.215-.7.386-1.421.566-2.145.79-3.431,1.413-6.8,1.974-9.98l.118.132-23.518,1.948-6.9.553-1.86.145-.487.035Z"/><path class="m" d="M85.434,113.851a2.127,2.127,0,0,1-.373-.329c-.228-.219-.548-.553-.934-.978A30.541,30.541,0,0,1,81.393,109a30.23,30.23,0,0,1-2.193-3.9c-.241-.522-.439-.948-.54-1.246a2.224,2.224,0,0,1-.158-.474,1.913,1.913,0,0,1,.241.439c.136.285.342.7.6,1.206a39.557,39.557,0,0,0,2.25,3.847,40.253,40.253,0,0,0,2.667,3.558c.364.439.667.785.877,1.022A1.969,1.969,0,0,1,85.434,113.851Z"/><path class="m" d="M108.583,100.849a1.63,1.63,0,0,1-.307.057l-.877.118c-.759.105-1.86.237-3.224.39-2.724.307-6.5.68-10.669,1s-7.962.522-10.7.632c-1.373.053-2.479.092-3.246.105h-.877a2.4,2.4,0,0,1-.311,0,1.315,1.315,0,0,1,.307-.035l.877-.057,3.242-.18c2.737-.154,6.519-.382,10.691-.7s7.94-.667,10.669-.934l3.233-.316.877-.079a1.536,1.536,0,0,1,.316,0Z"/><path class="j" d="M139.115,112.935l-2.193,11.375L114.312,112.3l-5.08,5.369s21.522,19.684,26.031,23.281,10.647-.557,12.441-7.234,4.176-15.3,4.856-20.9Z"/><path class="j" d="M116.251,113.707s-6.532-4.957-8.853-4.453a9.108,9.108,0,0,0-2,.645,5.7,5.7,0,0,1-2.457.592c-.855,0-1.939,0-2.987-.053-2.009-.092-2.632.439-2.79,1.211a1.25,1.25,0,0,0,1.119,1.518,23.074,23.074,0,0,1,3.865.54c1.211.395-.206.145-1.72,1.127s-7.673,1.184-7.673,1.184L89.4,113.457a1.123,1.123,0,0,0-1.724,1.316l.026.053-.307-.311a.948.948,0,0,0-1.535,1.053.179.179,0,0,1,.022.039l2.729,2.632,4.141,1.715,7.168-.706s5.264-1.917,6.26-2.22,4.347.649,6.909,3.509Z"/><path class="k" d="M142.362,134.211c-.035,0-.224-.614-.592-1.592a30.1,30.1,0,0,0-1.7-3.724,29.3,29.3,0,0,0-2.22-3.439c-.627-.842-1.048-1.338-1.022-1.364a1.812,1.812,0,0,1,.333.32c.2.211.483.535.816.943a23.43,23.43,0,0,1,2.29,3.431,23.151,23.151,0,0,1,1.654,3.777c.167.5.29.912.355,1.2a1.508,1.508,0,0,1,.088.452Z"/><path class="k" d="M100.02,119.243a3.2,3.2,0,0,1-.61.1c-.395.048-.969.114-1.676.18-1.413.149-3.382.268-5.549.355a5.931,5.931,0,0,1-1.606-.088,4.387,4.387,0,0,1-1.377-.614,9.273,9.273,0,0,1-1.842-1.711c-.461-.544-.812-1-1.057-1.316a3.179,3.179,0,0,1-.368-.5,2.738,2.738,0,0,1,.439.439l1.114,1.263a9.428,9.428,0,0,0,1.838,1.641,4.238,4.238,0,0,0,1.316.575,5.992,5.992,0,0,0,1.549.075c2.193-.088,4.124-.18,5.545-.285l1.68-.11a3.159,3.159,0,0,1,.605,0Z"/><path class="k" d="M98.265,119.072a1.61,1.61,0,0,1-.439.031H96.668c-.978,0-2.343,0-3.882-.044h-.022c-.219-.048-.439-.1-.689-.167a5.04,5.04,0,0,1-1.18-.439,3.4,3.4,0,0,1-.912-.763c-.474-.575-.877-1.1-1.215-1.544s-.588-.82-.759-1.084a1.948,1.948,0,0,1-.237-.439,2.426,2.426,0,0,1,.311.373c.189.246.465.605.812,1.035l1.246,1.509a3.777,3.777,0,0,0,1.992,1.141c.232.061.465.114.68.162H92.79c1.54.035,2.9.079,3.882.123l1.154.057A1.386,1.386,0,0,1,98.265,119.072Z"/><path class="k" d="M106.561,114.5c0,.061-.877-.158-1.935-.3s-1.948-.158-1.952-.224a5.207,5.207,0,0,1,1.983,0,5.154,5.154,0,0,1,1.9.526Z"/><path class="e" d="M134.579,54.055a.706.706,0,0,1-.355,0,2.088,2.088,0,0,1-.877-.373,2.123,2.123,0,0,1-.816-1.184c-.145-.526-.123-1.132-.307-1.676a1.163,1.163,0,0,0-.491-.627,2.68,2.68,0,0,0-.75-.263,3.071,3.071,0,0,1-.728-.259,1.448,1.448,0,0,1-.509-.439,2.851,2.851,0,0,1-.39-.877c-.057-.219-.079-.342-.061-.347a1.316,1.316,0,0,1,.145.316,3.589,3.589,0,0,0,.439.816,1.382,1.382,0,0,0,.469.39,2.953,2.953,0,0,0,.689.219,2.851,2.851,0,0,1,.816.276,1.386,1.386,0,0,1,.592.741c.206.619.167,1.211.294,1.7a2.018,2.018,0,0,0,.715,1.11A2.768,2.768,0,0,0,134.579,54.055Z"/><path class="e" d="M142.787,46.8a.5.5,0,0,1,.11.224,1.167,1.167,0,0,1-.026.719,1.123,1.123,0,0,1-.816.755,1.268,1.268,0,0,1-1.342-.535h.167a2.5,2.5,0,0,1-1.579,1.557,2.286,2.286,0,0,1-1.277.057,2.558,2.558,0,0,1-1.167-.671,2.465,2.465,0,0,1-.667-1.241l.184.061A5.291,5.291,0,0,1,133.9,48.9a5.435,5.435,0,0,1-2.193-.026,4.725,4.725,0,0,1-1.364-.509,2.441,2.441,0,0,1-.329-.211c-.075-.048-.11-.079-.105-.083a6.936,6.936,0,0,0,1.825.658,5.532,5.532,0,0,0,2.128-.026,5.146,5.146,0,0,0,2.365-1.149l.145-.127.039.193a2.193,2.193,0,0,0,.61,1.123,2.321,2.321,0,0,0,1.057.614,2.114,2.114,0,0,0,1.158-.044A2.329,2.329,0,0,0,140.7,47.9l.061-.189.105.171a1.119,1.119,0,0,0,1.154.487,1.035,1.035,0,0,0,.75-.649,1.215,1.215,0,0,0,.07-.667,1.976,1.976,0,0,1-.057-.254Z"/><path class="e" d="M138.764,42.228a.251.251,0,0,1,.162.092.6.6,0,0,1,.132.513.79.79,0,0,1-.588.57,1.755,1.755,0,0,1-1.048-.1l.127-.136a1.627,1.627,0,0,1-.877,1.97,4.1,4.1,0,0,1-1.812.382,4.141,4.141,0,0,1-1.5-.154,1.588,1.588,0,0,1-.812-.623c-.132-.211-.14-.351-.127-.351s.057.123.2.3a1.658,1.658,0,0,0,.794.518,4.246,4.246,0,0,0,1.443.1,4.005,4.005,0,0,0,1.711-.373,1.45,1.45,0,0,0,.79-1.689l-.1-.219.224.088a1.658,1.658,0,0,0,.934.132.676.676,0,0,0,.513-.439.566.566,0,0,0-.061-.439C138.817,42.267,138.756,42.241,138.764,42.228Z"/></g></g></svg>