<svg xmlns="http://www.w3.org/2000/svg" xmlns:xlink="http://www.w3.org/1999/xlink" width="302" height="190" viewBox="0 0 302 190"><defs><style>.a{fill:#bce0fd;}.b{clip-path:url(#a);}.c{fill:#f8f7f4;}.d{fill:#417b5a;}.e{fill:#263238;}.f{fill:#455a64;}.g{fill:#ffbe9d;}.h{opacity:0.1;}.i{fill:#fff;}.j{fill:#eb996e;}</style><clipPath id="a"><rect class="a" width="302" height="190" transform="translate(600 551)"/></clipPath></defs><g class="b" transform="translate(-600 -551)"><g transform="translate(625.433 500.052)"><path class="c" d="M220.42,74.355a48.246,48.246,0,0,1,3.213,6.2c11.3,26.252,6.651,58.225-9.415,81.987-16.886,24.946-44.986,41.092-74.521,46.973-21.09,4.2-43.776,3.347-63.044-6.2S42.217,174.588,41.06,153.1c-.439-8.114,1.285-16.725,6.694-22.777,8.644-9.672,23.393-10.009,36.358-9.613s27.7.1,36.39-9.533c6.673-7.4,7.653-18.139,11.166-27.463a51.694,51.694,0,0,1,36.979-31.731,49.886,49.886,0,0,1,16.918-.573A48.752,48.752,0,0,1,220.42,74.371Z"/><path class="d" d="M47.128,116.31c1.773,2.228,4.772,3.551,4.445,5.318-.295,1.575-1.7,6.336-1.569,7.931.166,2.078,2.073,3.524,3.829,4.638s3.711,2.437,4.07,4.488c.311,1.773-.707,3.588-.359,5.355.434,2.239,2.79,3.481,4.895,4.354q5.393,2.244,10.952,4.043A11.107,11.107,0,0,0,70,141.92c-1.36-1.2-3.047-2.1-4.011-3.636-1.151-1.837-1.018-4.156-1.167-6.314s-.862-4.606-2.844-5.479c-1.1-.487-2.485-.423-3.347-1.259-1.071-1.034-.75-2.785-1.071-4.236a6.143,6.143,0,0,0-4.252-4.167,18.226,18.226,0,0,0-6.175-.536"/><path class="d" d="M78.966,157.408c-2.464-4-1.435-8.8.621-13.024s5.5-7.589,8.965-10.754,7.749-6.534,12.51-6.095c-2.731,1.376-3.851,4.654-4.429,7.664s-.948,6.255-2.967,8.569c-1.012,1.157-2.453,2.1-2.769,3.61-.284,1.366.466,2.806.107,4.15-.584,2.185-3.62,2.8-4.557,4.857-.455,1-.359,2.217-1,3.1a3.007,3.007,0,0,1-3.749.589,9.14,9.14,0,0,1-2.9-2.913"/><path class="e" d="M79.882,168.7a16.689,16.689,0,0,1-1.242-2.223c-.718-1.478-1.607-3.685-2.613-6.427-.536-1.376-1.071-2.881-1.687-4.483a47,47,0,0,0-2.228-5.007,11.916,11.916,0,0,0-1.644-2.421,13.431,13.431,0,0,0-2.4-1.9c-.878-.573-1.8-1.114-2.678-1.762a9.581,9.581,0,0,1-2.362-2.356,6.271,6.271,0,0,1-1.012-3.187c-.08-1.1,0-2.174-.1-3.213a6.159,6.159,0,0,0-.873-2.876,3.256,3.256,0,0,0-1.055-.991,6.427,6.427,0,0,0-1.317-.584,6.752,6.752,0,0,1-2.565-1.253,3.438,3.438,0,0,1-.905-2.533c0-.873.1-1.7.07-2.485a6.534,6.534,0,0,0-.471-2.2,9.308,9.308,0,0,0-2.228-3.186,17.367,17.367,0,0,0-2.324-1.842c-.675-.455-1.216-.793-1.58-1.023l-.412-.262a.814.814,0,0,1-.139-.1l.15.075.428.241c.375.214.926.536,1.607.98a16.939,16.939,0,0,1,2.372,1.821,9.372,9.372,0,0,1,2.3,3.213,6.609,6.609,0,0,1,.5,2.265c.032.814-.07,1.644-.054,2.5a3.213,3.213,0,0,0,.846,2.356,6.468,6.468,0,0,0,2.48,1.184,7.037,7.037,0,0,1,1.371.605,3.556,3.556,0,0,1,1.119,1.071,6.346,6.346,0,0,1,.916,2.994c.091,1.071.027,2.142.112,3.213a5.987,5.987,0,0,0,.964,3.053,9.318,9.318,0,0,0,2.3,2.287c.868.637,1.794,1.178,2.678,1.762a13.545,13.545,0,0,1,2.447,1.939,12.414,12.414,0,0,1,1.682,2.49,47.084,47.084,0,0,1,2.212,5.045c.621,1.607,1.157,3.117,1.66,4.493,1,2.753,1.837,4.965,2.522,6.453.353.734.621,1.312.841,1.682.1.177.171.321.236.434a.691.691,0,0,1,.08.166Z"/><path class="e" d="M100.95,127.46a2.319,2.319,0,0,1-.423.23c-.278.139-.691.353-1.2.659a18.043,18.043,0,0,0-3.9,3.149,17.594,17.594,0,0,0-2.1,2.747,18.8,18.8,0,0,0-.921,1.7c-.284.6-.536,1.232-.878,1.864a9.147,9.147,0,0,1-1.184,1.848,5.891,5.891,0,0,1-1.821,1.392,17.813,17.813,0,0,0-2.024,1.135,3.4,3.4,0,0,0-1.317,1.853c-.45,1.526-.209,3.181-.728,4.686a25.482,25.482,0,0,1-2.142,3.883,9.865,9.865,0,0,0-1.146,3.749,14.4,14.4,0,0,0,.07,3.454,29.991,29.991,0,0,0,1.194,4.89c.177.536.316.985.418,1.307a2.549,2.549,0,0,1,.129.461.472.472,0,0,1-.054-.107q-.048-.139-.129-.337c-.112-.289-.273-.728-.466-1.291a27.387,27.387,0,0,1-1.285-4.895,14.412,14.412,0,0,1-.107-3.5,9.988,9.988,0,0,1,1.151-3.856,31.135,31.135,0,0,0,2.142-3.845c.536-1.43.252-3.063.718-4.681a3.7,3.7,0,0,1,1.419-2,18.452,18.452,0,0,1,2.062-1.151,5.677,5.677,0,0,0,1.746-1.328,8.954,8.954,0,0,0,1.157-1.789c.316-.621.594-1.248.889-1.853a18.623,18.623,0,0,1,.943-1.714,17.614,17.614,0,0,1,2.142-2.763,17.036,17.036,0,0,1,3.99-3.1,12.886,12.886,0,0,1,1.232-.616,3.6,3.6,0,0,1,.428-.177Z"/><path class="e" d="M160.878,146.306c5.023-.434,10.127-.868,15.124-.268s9.945,2.394,12.655,5.521c2.276,2.63,2.721,5.891,3.106,8.97l3.31,26.59c.284,2.255.536,4.595-.461,6.737-2.206,4.686-10.331,6.9-16.805,5.436a19.954,19.954,0,0,1-13.469-10.422c-2.308-4.659-2.6-9.7-2.871-14.653l-1.473-26.943.653-.428"/><path class="e" d="M21.277,192.25l1.558,5.479,148.818,43.219,51.188-33.782V202.56Z"/><path class="f" d="M74.66,167.455l148.18,35.105-51.187,33.4L21.277,192.25Z"/><path class="e" d="M152.839,197.6l-28.341,13.7L72.54,197.124l25.508-13.935Z"/><path class="f" d="M121.59,197.017l7.524,2.485,6.967-3.786-11.595-3.722-6.769,3.513Z"/><path class="e" d="M65.926,158.864c.236.943,6.614,38.259,6.614,38.259l51.948,14.171-6.839-39.92Z"/><path class="f" d="M120.717,189.257c.075,0,.985,4.911,2.03,10.995s1.832,11.032,1.751,11.043-.98-4.911-2.024-10.995S120.642,189.267,120.717,189.257Z"/><path class="f" d="M96.607,184.094a2.759,2.759,0,1,1-3.69-1.971A2.978,2.978,0,0,1,96.607,184.094Z"/><path class="g" d="M117.649,171.375c2.314-2.678,3.658-20.886,3.658-20.886l17.137,1.928h0s-2.469,26.676-10.3,29.878l-7.835,3.213"/><path class="d" d="M173.951,177.089s7.583,8.5,7.128,15.579l-13.458-3.213,5.189-12.387"/><path class="d" d="M184.763,153.305c-.332-14.883-6.212-22.166-6.453-23.109a23.2,23.2,0,0,0-17.137-7.53l-15.975.257a37.113,37.113,0,0,0-11.814,3.465l-.4.112v.08c-4.52,2.362-9.372,6.036-10.138,12.232l-1.933,12.066,11.107.536h0c-1.13,4.038-2.378,4.557-1.071,8.542l4.231,7.021c0,5.6-.375,2.206-2.094,14.347L176,191.5c2.49-2.453.594-9.1-6.046-21.192-.991-1.81,4.156-20.019,4.156-20.019l9.586,3.326"/><path class="e" d="M134.529,146.8a4.986,4.986,0,0,1-.386.76c-.268.482-.653,1.167-1.109,2.03a17.221,17.221,0,0,0-2.223,7.182,9.029,9.029,0,0,0,.734,4.043,13.125,13.125,0,0,0,1.816,2.871c.616.755,1.151,1.333,1.516,1.746a4.728,4.728,0,0,1,.536.648,5.482,5.482,0,0,1-.616-.594c-.386-.386-.948-.948-1.607-1.7a12.42,12.42,0,0,1-1.9-2.887,9.034,9.034,0,0,1-.782-4.161,13.25,13.25,0,0,1,.862-4.14,22.685,22.685,0,0,1,1.467-3.122c.477-.857.894-1.532,1.184-1.992A5.324,5.324,0,0,1,134.529,146.8Z"/><path class="e" d="M183.2,140.431l-.123.107c-.086.064-.209.171-.38.295a6.674,6.674,0,0,1-1.666.809,11.4,11.4,0,0,1-6.732-.22c-1.382-.407-2.844-1.007-4.413-1.607a18.788,18.788,0,0,0-5.163-1.333,16.6,16.6,0,0,0-5.837.589,60.389,60.389,0,0,0-6.025,2.067,47.128,47.128,0,0,1-6.084,1.992,16.066,16.066,0,0,1-5.95.343,21.785,21.785,0,0,1-5.147-1.607c-1.553-.664-2.983-1.307-4.343-1.751a14.636,14.636,0,0,0-3.749-.734,9.307,9.307,0,0,0-2.871.289,7.621,7.621,0,0,0-2.228,1.071s.037-.037.123-.107.214-.166.391-.284a6.925,6.925,0,0,1,1.682-.766,9.1,9.1,0,0,1,2.913-.343,14.374,14.374,0,0,1,3.813.7c1.376.434,2.817,1.071,4.37,1.724a22,22,0,0,0,5.1,1.607,15.836,15.836,0,0,0,5.853-.359,46.591,46.591,0,0,0,6.046-1.987,58.575,58.575,0,0,1,6.052-2.067,16.816,16.816,0,0,1,5.934-.584,18.882,18.882,0,0,1,5.216,1.371c1.575.611,3.021,1.216,4.386,1.633a11.617,11.617,0,0,0,6.646.305A7.605,7.605,0,0,0,183.2,140.431Z"/><path class="e" d="M170.031,167.037a1.608,1.608,0,0,1-.343.134l-1.007.321a26.957,26.957,0,0,1-3.792.905,13.925,13.925,0,0,1-2.678.161,12.854,12.854,0,0,1-3.058-.536c-2.1-.611-4.236-1.73-6.566-2.619a24.547,24.547,0,0,0-3.492-1,26.4,26.4,0,0,0-3.358-.423,24.3,24.3,0,0,0-5.714.391,23.343,23.343,0,0,0-3.749,1.034c-.434.139-.76.295-.985.375a1.606,1.606,0,0,1-.353.118,3.459,3.459,0,0,1,.332-.171c.22-.1.536-.262.969-.423a20.919,20.919,0,0,1,3.749-1.125,23.563,23.563,0,0,1,5.762-.455,26.007,26.007,0,0,1,3.4.412,24.245,24.245,0,0,1,3.535,1.012c2.356.894,4.472,2.014,6.544,2.63a12.965,12.965,0,0,0,2.994.536,14.167,14.167,0,0,0,2.678-.123,31,31,0,0,0,3.786-.814l1.023-.273A1.557,1.557,0,0,1,170.031,167.037Z"/><path class="e" d="M150.574,182.75a2.727,2.727,0,0,1-.712-.075,16.155,16.155,0,0,1-1.907-.45c-1.607-.439-3.7-1.35-6.095-2.057a12.4,12.4,0,0,0-6.293-.343,9.255,9.255,0,0,0-2.415,1.039.691.691,0,0,1,.134-.129,3.368,3.368,0,0,1,.434-.311,6.427,6.427,0,0,1,1.8-.793,12.053,12.053,0,0,1,6.427.268c2.442.712,4.5,1.649,6.073,2.142.782.252,1.425.428,1.869.536A3.936,3.936,0,0,1,150.574,182.75Z"/><g class="h"><path d="M170.379,150.017s-6.994,15.418-.894,25.5l2.86-1.071-2.394-4.177a4.665,4.665,0,0,1-.08-1.939c.353-2.2,1.034-5.779,1.944-9.388Z"/></g><path class="e" d="M158.7,94.363c3.449,3.01,4.986,7.744,5.1,12.318s-.289,9.763-.182,14.535l6.994-.139a138.9,138.9,0,0,0,14.283-.691,4.284,4.284,0,0,0,2.115-.536c1.018-.691,1.248-2.067,1.387-3.288a14.479,14.479,0,0,0-.123-5.762,4.937,4.937,0,0,0-4.011-3.7,6.522,6.522,0,0,1-2.024-.161,2.555,2.555,0,0,1-1.366-1.869c-.177-.782-.15-1.607-.268-2.389a6.678,6.678,0,0,0-4.375-5.222c-1.435-.487-3.165-.536-4.108-1.735-1.146-1.441-.4-3.524-.332-5.355a6.684,6.684,0,0,0-10.823-5.463"/><path class="g" d="M153.295,131.428h0a8.189,8.189,0,0,1-8.162-7.84c-.15-3.524-.273-6.866-.273-6.866s-6.743-.627-7.225-7.273-.278-21.99-.278-21.99h0a23.157,23.157,0,0,1,23.409,1.483l1.034.7-.305,33.664a8.194,8.194,0,0,1-8.2,8.119Z"/><path class="e" d="M140.313,100.067a.964.964,0,1,0-.686.286A.969.969,0,0,0,140.313,100.067Z"/><path class="e" d="M137.925,98.032c.112.112.734-.434,1.649-.493s1.607.37,1.7.246-.07-.257-.375-.461a2.276,2.276,0,0,0-2.678.2C137.957,97.769,137.871,98,137.925,98.032Z"/><path class="e" d="M148.523,98.6a.969.969,0,1,0,1.35.236.969.969,0,0,0-1.35-.236Z"/><path class="e" d="M147.918,98.235c.112.112.734-.434,1.649-.493s1.607.37,1.7.246-.07-.257-.37-.461a2.278,2.278,0,0,0-2.678.2C147.95,97.973,147.864,98.187,147.918,98.235Z"/><path class="e" d="M144.667,105.353a4.488,4.488,0,0,0-1.5-.22c-.241,0-.434-.054-.455-.182a1.258,1.258,0,0,1,.129-.7c.2-.621.4-1.248.611-1.907a25.466,25.466,0,0,0,1.264-4.991,26.411,26.411,0,0,0-1.767,4.82c-.193.664-.38,1.3-.568,1.917a1.537,1.537,0,0,0-.07,1.007.637.637,0,0,0,.434.359,1.666,1.666,0,0,0,.412.027A3.562,3.562,0,0,0,144.667,105.353Z"/><path class="i" d="M147.709,106.183c.921-.627-2.544,1.558-4.413,1.607a2.528,2.528,0,0,0,3.047.819C148.293,107.736,147.709,106.183,147.709,106.183Z"/><path class="j" d="M144.822,116.626a15.461,15.461,0,0,0,8.515-3s-1.751,4.916-8.424,4.724Z"/><path class="e" d="M161.333,103.36c-2.4,1.939-5.318-3.079-6.609-6.223A30.883,30.883,0,0,1,152.85,87.08a4.96,4.96,0,0,1,.578-3.24c.653-.884.926.15,1.751-.664,1.419-1.4.07-1.408,1.489-1.237,2.426.295,7.712,4.5,8.156,7.042a24.926,24.926,0,0,1-.273,7.717c-.166,1.167-.332,2.34-.493,3.508a5.736,5.736,0,0,1-.7,2.367,1.693,1.693,0,0,1-2.03.787"/><path class="g" d="M161.419,97.86a1.007,1.007,0,0,1,.959-1.007c1.242-.032,3.272.461,3.465,3.888.273,4.89-4.434,3.668-4.45,3.529S161.408,99.767,161.419,97.86Z"/><path class="j" d="M162.469,102.348a2,2,0,0,0,.236.112.825.825,0,0,0,.637,0,2.113,2.113,0,0,0,.873-1.944,2.806,2.806,0,0,0-.305-1.21,1,1,0,0,0-.68-.616.423.423,0,0,0-.487.262c-.059.139,0,.236-.048.246s-.112-.08-.08-.284a.535.535,0,0,1,.171-.316.643.643,0,0,1,.466-.15,1.194,1.194,0,0,1,.932.707,2.876,2.876,0,0,1,.375,1.35,2.253,2.253,0,0,1-1.13,2.18.889.889,0,0,1-.782-.086C162.485,102.466,162.453,102.359,162.469,102.348Z"/><path class="e" d="M153.4,83.872a15.675,15.675,0,0,1-9.313,9.95,1.226,1.226,0,0,1-1.157,0c-.407-.321-.252-1,.091-1.387s.819-.664,1.071-1.119l-2.49,1.408a3.984,3.984,0,0,1-1.285.536,1.366,1.366,0,0,1-1.28-.4.83.83,0,0,1,.171-1.216,1.965,1.965,0,0,1-2.833.316,2.929,2.929,0,0,1-.777-2.967,6.014,6.014,0,0,1,1.746-2.678c3.444-3.353,8.451-4.568,13.244-4.895a15.338,15.338,0,0,1,4.429.193c1.446.321,3.685.2,6.293,3.058"/><path class="e" d="M141.631,95.531c-.054.155-.926-.043-2,0s-1.949.241-2.008.1.8-.632,1.992-.653S141.689,95.4,141.631,95.531Z"/><path class="e" d="M151.415,95.643c-.054.15-.9-.037-1.939-.086s-1.9.043-1.939-.112.83-.5,1.965-.445S151.468,95.5,151.415,95.643Z"/><path class="f" d="M164.22,92.773c-.08-.048.182-.536.37-1.371a5.891,5.891,0,0,0-.177-3.261,5.961,5.961,0,0,0-1.939-2.63c-.68-.536-1.194-.734-1.162-.819s.594,0,1.387.5a5.393,5.393,0,0,1,2.271,6.319C164.664,92.382,164.268,92.81,164.22,92.773Z"/><path class="g" d="M170.379,150.017l3.813,23.741-30.7,11.466,4.97,10.25,32.309-10.1a10.963,10.963,0,0,0,7.5-12.4l-4.129-22.948Z"/><path class="g" d="M143.676,185.154s-5.714-1.821-8.456-2.522c-1.071-.273-5.639,2.142-8.8,4.145,0,0-4.349,2.581-4,3.374.386.878,1.992.7,4.547-.5,0,0-.894,2.587.862,2.533,0,0-.873,2.8.771,3.09s2.03-3.283,3.476-3.476,4.445-.386,4.445-.386,2.49,4.129,4.424,4.418,7.69-.364,7.69-.364Z"/><path class="j" d="M132.109,186.29a25.256,25.256,0,0,1-4.488,2.828,13.143,13.143,0,0,1,2.142-1.532,12.977,12.977,0,0,1,2.346-1.3Z"/><path class="j" d="M132.6,187.88a16.2,16.2,0,0,1-2.635,1.371,15.977,15.977,0,0,1-2.747,1.114,15.532,15.532,0,0,1,2.63-1.371,15.927,15.927,0,0,1,2.753-1.114Z"/><path class="j" d="M131.712,191.725a6.426,6.426,0,0,1-1.832.391,6.518,6.518,0,0,1-1.885.145,6.293,6.293,0,0,1,1.832-.4,6.394,6.394,0,0,1,1.885-.139Z"/></g></g></svg>