<svg xmlns="http://www.w3.org/2000/svg" xmlns:xlink="http://www.w3.org/1999/xlink" width="302" height="190" viewBox="0 0 302 190"><defs><style>.a{fill:#bce0fd;}.b{clip-path:url(#a);}.c{fill:#f8f7f4;}.d{fill:#263238;}.e{fill:#417b5a;}.f{opacity:0.6;}.g{fill:#fff;}.h{opacity:0.3;}.i{fill:#455a64;}.j{fill:#ffbe9d;}.k{fill:#fafafa;}.l{fill:#eb996e;}.m{opacity:0.4;}.n{fill:#e0e0e0;}.o{fill:#ebebeb;}</style><clipPath id="a"><rect class="a" width="302" height="190" transform="translate(600 551)"/></clipPath></defs><g class="b" transform="translate(-600 -551)"><g transform="translate(592.942 534.735)"><path class="c" d="M100.845,201.463c-15.058,2.32-30.664-5.252-40-17.293s-12.867-27.9-11.882-43.107c.779-12.079,4.614-24.548,13.526-32.74,14.249-13.1,36.122-11.5,54.84-16.424a76.537,76.537,0,0,0,34.919-20.242c7.362-7.486,13.179-16.5,21.295-23.165,19.33-15.884,51.51-21.333,73.986-10.341C261.748,45.106,267,51.788,272.89,60.683c8.257,12.456,9.04,28.041,6.652,42.8-5.415,33.485-21.718,87.2-59.043,97.969Z"/><circle class="c" cx="18.975" cy="18.975" r="18.975" transform="translate(38.005 44.417)"/><path class="d" d="M299.98,201.506c0,.06-63.546.111-141.915.111s-141.928-.051-141.928-.111,63.529-.111,141.928-.111S299.98,201.442,299.98,201.506Z"/><path class="e" d="M284.913,185.6l2.748,10.919,4.666,8a1.156,1.156,0,0,1-.484,1.618h0a1.156,1.156,0,0,1-1.053,0c-2.1-1.13-9.785-5.329-9.939-6.138-.184-.937-3.668-11.322-3.668-11.322Z"/><g class="f"><path class="g" d="M291.843,206.137l-11.2-6.887.128.458a1.738,1.738,0,0,0,.7.976c.912.621,3.471,2.273,9.284,5.445a1.151,1.151,0,0,0,1.087,0Z"/></g><g class="f"><path class="g" d="M281.908,195.133a.7.7,0,0,1,.428.83.668.668,0,0,1-.813.428.736.736,0,0,1-.449-.877.7.7,0,0,1,.9-.355"/></g><path class="d" d="M288.068,202.08a3.642,3.642,0,0,1,.719-1.109,3.424,3.424,0,0,1,1.186-.582c0-.03-.158-.077-.428-.043a1.845,1.845,0,0,0-1.472,1.31C287.995,201.913,288.025,202.08,288.068,202.08Z"/><path class="d" d="M289.228,203.317c.064.03.317-.428.83-.732a9.161,9.161,0,0,1,1.023-.428,1.284,1.284,0,0,0-1.151.223C289.352,202.743,289.164,203.317,289.228,203.317Z"/><path class="d" d="M286.1,200.616a5.941,5.941,0,0,1,2.714-2.037A3.15,3.15,0,0,0,286.1,200.616Z"/><path class="d" d="M284.986,197.367c.047.056.578-.36,1.348-.6s1.442-.227,1.447-.3a2.167,2.167,0,0,0-1.524.064A2.239,2.239,0,0,0,284.986,197.367Z"/><path class="d" d="M284.1,194.182a5.565,5.565,0,0,1,1.391-.663,5.724,5.724,0,0,1,1.537-.039c0-.026-.146-.128-.428-.205a2.491,2.491,0,0,0-2.2.526C284.168,194,284.074,194.161,284.1,194.182Z"/><path class="d" d="M285.3,192.915a1.053,1.053,0,0,0-.1-.428,3.061,3.061,0,0,0-.625-.984,1.314,1.314,0,0,0-.706-.454.471.471,0,0,0-.479.24.783.783,0,0,0-.034.539,1.627,1.627,0,0,0,1.781,1.07,1.879,1.879,0,0,0,1.524-1.447.646.646,0,0,0-.116-.535.428.428,0,0,0-.522-.1,1.614,1.614,0,0,0-.612.565,3.339,3.339,0,0,0-.505,1.049,1.057,1.057,0,0,0-.064.428,5.137,5.137,0,0,1,.711-1.365,1.515,1.515,0,0,1,.544-.484.248.248,0,0,1,.287.056.454.454,0,0,1,.056.355,1.712,1.712,0,0,1-1.34,1.241,1.412,1.412,0,0,1-1.524-.9.547.547,0,0,1,0-.372.252.252,0,0,1,.261-.137,1.164,1.164,0,0,1,.608.372A4.413,4.413,0,0,1,285.3,192.915Z"/><path class="e" d="M248.136,187.321l.608,9.169s-9.126,3.03-9.181,4.738l17.836.128-.36-14.331Z"/><g class="f"><path class="g" d="M254.253,195.552a.732.732,0,0,1,.526.818.7.7,0,0,1-.8.531.77.77,0,0,1-.552-.856.723.723,0,0,1,.895-.458"/></g><g class="f"><path class="g" d="M257.4,201.356l-.034-1.447-17.237.479a1.22,1.22,0,0,0-.663.967Z"/></g><path class="d" d="M248.453,196.408c0,.09.428.116.856.381s.676.625.758.591-.068-.535-.6-.856S248.432,196.331,248.453,196.408Z"/><path class="d" d="M246.608,197.239c0,.086.364.223.668.582s.407.745.492.74.128-.5-.261-.942S246.608,197.157,246.608,197.239Z"/><path class="d" d="M245.615,199.512c.077,0,.184-.428-.051-.895s-.651-.646-.685-.574.223.321.428.711S245.525,199.5,245.615,199.512Z"/><path class="d" d="M248.547,194.3c.039.081.428-.051.929-.034s.882.163.925.086-.338-.372-.916-.39S248.5,194.238,248.547,194.3Z"/><g class="h"><path d="M248.26,189.136l.107,1.635,8.758-.347-.034-1.472Z"/></g><path class="d" d="M248.457,192.453a1.712,1.712,0,0,0,.895-.034,4.131,4.131,0,0,0,.925-.312,3.821,3.821,0,0,0,.505-.291.967.967,0,0,0,.261-.218.377.377,0,0,0,.026-.462.479.479,0,0,0-.385-.188,1.207,1.207,0,0,0-.334.056,3.313,3.313,0,0,0-.548.21,3.052,3.052,0,0,0-.809.565c-.4.394-.531.723-.5.741s.231-.253.642-.582a3.609,3.609,0,0,1,.783-.471,3.56,3.56,0,0,1,.509-.175c.184-.051.347-.06.4.021s0,.047,0,.1a.977.977,0,0,1-.193.158,4.876,4.876,0,0,1-1.318.642,6.424,6.424,0,0,0-.856.24Z"/><path class="d" d="M248.577,192.573a1.447,1.447,0,0,0,.21-.856,2.931,2.931,0,0,0-.154-.976,3.108,3.108,0,0,0-.244-.535.736.736,0,0,0-.582-.428.428.428,0,0,0-.364.261,1.156,1.156,0,0,0-.081.33,1.857,1.857,0,0,0,0,.6,2.021,2.021,0,0,0,.407.912c.364.454.732.544.736.514a6.484,6.484,0,0,1-.544-.633,2.05,2.05,0,0,1-.308-.83,1.875,1.875,0,0,1,0-.514c0-.193.09-.347.163-.33a.633.633,0,0,1,.321.283,3.493,3.493,0,0,1,.235.475,3.364,3.364,0,0,1,.2.886C248.611,192.231,248.526,192.56,248.577,192.573Z"/><path class="d" d="M248.094,107.356l27.172-.205L288.4,193.4l-11.279,1.43-14.451-70.917-4.327,71.169-.013.214-12.195-.214Z"/><path class="i" d="M261.756,122.054a5.562,5.562,0,0,0-.068-1.049c-.064-.651-.133-1.541-.163-2.53s0-1.888,0-2.534a5.562,5.562,0,0,0,0-1.057,4.394,4.394,0,0,0-.163,1.044,21.135,21.135,0,0,0,.154,5.094A3.972,3.972,0,0,0,261.756,122.054Z"/><path class="i" d="M259.518,115.141a.245.245,0,0,0-.158-.06.689.689,0,0,0-.428.133.754.754,0,1,0,1.032,1.087.8.8,0,0,0,.111-.7.7.7,0,0,0-.278-.377c-.094-.06-.158-.06-.163-.051a.764.764,0,0,1,.287.471.646.646,0,0,1-.12.531.595.595,0,0,1-1-.342.663.663,0,0,1,.227-.492A.784.784,0,0,1,259.518,115.141Z"/><path class="i" d="M266.478,113.4a1.657,1.657,0,0,0,.248.227,4.512,4.512,0,0,0,.775.488,6.283,6.283,0,0,0,1.284.479,7.058,7.058,0,0,0,1.652.21,7.337,7.337,0,0,0,1.656-.205,6.277,6.277,0,0,0,1.284-.484,4.538,4.538,0,0,0,.775-.484c.167-.133.257-.214.248-.227s-.4.257-1.091.569a7.129,7.129,0,0,1-1.254.428,7.028,7.028,0,0,1-3.215,0,6.49,6.49,0,0,1-1.254-.428C266.88,113.652,266.5,113.361,266.478,113.4Z"/><path class="i" d="M249.656,115.223a1.879,1.879,0,0,0,.745.158,5.243,5.243,0,0,0,3.484-1,1.884,1.884,0,0,0,.548-.526,7.054,7.054,0,0,1-4.777,1.365Z"/><path class="i" d="M284.1,194.182a1.2,1.2,0,0,1-.077-.184c-.039-.124-.094-.317-.154-.569-.12-.505-.282-1.254-.479-2.226-.385-1.939-.916-4.747-1.549-8.227-1.284-6.956-2.953-16.574-4.815-27.2s-3.561-20.238-4.785-27.21c-.629-3.471-1.139-6.284-1.49-8.24-.184-.963-.325-1.712-.428-2.239-.051-.248-.09-.428-.116-.582l-.047-.2a1.418,1.418,0,0,0,.021.2c.021.133.056.338.094.586.09.522.214,1.284.381,2.243.334,1.96.818,4.777,1.417,8.253l4.708,27.223c1.858,10.628,3.574,20.242,4.88,27.193.651,3.476,1.2,6.284,1.618,8.214A11.918,11.918,0,0,0,284.1,194.182Z"/><path class="i" d="M249.463,193.211v-3.026c0-.959,0-2.17.039-3.553s.03-2.962.077-4.708c.068-3.484.2-7.632.4-12.233s.505-9.661.895-14.96.856-10.35,1.348-14.934.976-8.7,1.43-12.16c.214-1.712.428-3.287.621-4.661s.355-2.568.5-3.514.24-1.712.312-2.222c.034-.248.06-.428.077-.582a1.662,1.662,0,0,0,0-.2.8.8,0,0,1-.039.2c-.039.133-.06.33-.1.574-.086.518-.205,1.263-.355,2.217s-.338,2.14-.535,3.51-.428,2.932-.655,4.661c-.471,3.454-.976,7.572-1.477,12.156s-.963,9.631-1.365,14.938-.676,10.363-.877,14.981-.308,8.753-.355,12.242c-.034,1.742-.034,3.317-.047,4.708s0,2.568,0,3.553v2.825A.183.183,0,0,0,249.463,193.211Z"/><path class="j" d="M221.367,74.11l16.98,4.957,9.511-5.616,7.217,8.561-13.462,5.83a7.016,7.016,0,0,1-5.992-.2l-16.693-8.561Z"/><path class="k" d="M217.493,72.475l-2.1-1.091-5.847-3.043a.544.544,0,0,0-.676.77l3.728,3.065-1.575.591a1.34,1.34,0,0,0-.715.646l-.826,1.648s-.95.1-1.044.715.616.83.616.83l-.18.719a1.216,1.216,0,0,0,.175.976h0c.9.372,1.622-1.524,1.622-1.524l.967.1,1.053,2.14c1.34.325.706-1.789.706-1.789l.591.15c.591.146.9.565,1.819,1.036a9.78,9.78,0,0,0,2.722.638l1.335.984,4.066-5.56Z"/><path class="d" d="M217.493,72.475l.116.021.33.094,1.284.381,4.743,1.447.1.03L224,74.53l-4.028,5.564-.06.081-.077-.06-1.34-.98h.051a9.626,9.626,0,0,1-2.637-.582,8.205,8.205,0,0,1-1.216-.736,2.487,2.487,0,0,0-.6-.321c-.218-.06-.462-.116-.693-.175l.128-.137a3.553,3.553,0,0,1,.146,1.216.882.882,0,0,1-.291.616.856.856,0,0,1-.689.094h-.047l-.026-.051c-.334-.676-.693-1.4-1.057-2.14l.09.064-.856-.09h-.12l.116-.068a4.743,4.743,0,0,1-.518.963,1.417,1.417,0,0,1-.895.672h-.154a.644.644,0,0,1-.15-.039h-.056s-.094-.077-.051-.039h0l-.039-.06-.064-.128a1.374,1.374,0,0,1-.116-.552,2.286,2.286,0,0,1,.094-.535l.124-.5.081.137a1.04,1.04,0,0,1-.578-.39.792.792,0,0,1-.086-.7.937.937,0,0,1,.479-.488,2.021,2.021,0,0,1,.625-.184l-.086.06.522-1.04.261-.509a1.532,1.532,0,0,1,.338-.492,1.4,1.4,0,0,1,.509-.312l.518-.2,1.014-.385-.03.175-3.72-3.078h0a.634.634,0,0,1,.09-.736.625.625,0,0,1,.693-.154h0l5.8,3.06,1.571.856.407.227a.668.668,0,0,1,.137.086,1.258,1.258,0,0,1-.146-.064l-.428-.2-1.6-.8-5.826-3h0a.458.458,0,0,0-.505.116.467.467,0,0,0-.06.535V69.1l3.737,3.056.133.111-.163.06-1.01.39-.518.2a1.284,1.284,0,0,0-.428.27,1.378,1.378,0,0,0-.3.428l-.257.509-.522,1.04-.026.051h-.06c-.36.051-.8.205-.92.531a.591.591,0,0,0,.06.5.856.856,0,0,0,.449.3l.107.03-.026.1-.124.5a1.828,1.828,0,0,0-.086.479,1.147,1.147,0,0,0,.094.462l.056.1.03.051h0c.047.034-.06-.051-.047-.043h.026a.783.783,0,0,0,.107.026h.107a1.228,1.228,0,0,0,.736-.578,4.472,4.472,0,0,0,.488-.916l.034-.081h.2l.856.09h.064l.026.051c.36.732.719,1.451,1.053,2.14l-.073-.056a.646.646,0,0,0,.505-.056.681.681,0,0,0,.205-.467,3.219,3.219,0,0,0-.137-1.126l-.047-.184.18.047c.24.06.462.111.711.18a2.594,2.594,0,0,1,.655.351,8.19,8.19,0,0,0,1.186.719,9.464,9.464,0,0,0,2.568.574h.047l1.335.989-.137.021c1.545-2.1,2.928-3.976,4.066-5.53l.039.116-4.708-1.515-1.258-.428-.325-.111Z"/><path class="d" d="M213.551,77.26c0,.021-.467-.06-1.258-.175s-1.913-.261-3.232-.372h.021a.736.736,0,0,1-.681-1.023,1.417,1.417,0,0,1,1.126-.792c.505-.081.967-.107,1.421-.188s.89-.163,1.284-.27.8-.218,1.151-.338a1.207,1.207,0,0,0,.449-.231.308.308,0,0,0,.09-.364,1.142,1.142,0,0,0-.27-.33l-.287-.291c-.18-.184-.334-.334-.467-.454-.265-.235-.428-.334-.428-.351a1.533,1.533,0,0,1,.488.287,6.065,6.065,0,0,1,.5.428l.3.278a1.181,1.181,0,0,1,.317.368.475.475,0,0,1-.12.552,1.314,1.314,0,0,1-.505.282c-.36.128-.745.253-1.16.364s-.856.205-1.31.283-.95.116-1.417.193a1.194,1.194,0,0,0-.963.651.527.527,0,0,0,.449.741h0c1.327.128,2.448.3,3.236.454.394.077.706.146.916.2a1.122,1.122,0,0,1,.351.1Z"/><path class="d" d="M213.4,74.26a2.042,2.042,0,0,1-1.121.15,3.249,3.249,0,0,1-.591-.077l.1-.06c-.128.291-.231.475-.27.462s0-.223.09-.526l.021-.068h.081l.578.039a5.405,5.405,0,0,1,1.109.081Z"/><path class="e" d="M251.732,67.231l-10.941,8.394,7.67,10.1,9.357-5.312Z"/><path class="e" d="M251.732,67.231h0c1.584-.972,7.058-2.174,7.058-2.174l10.59-1.151,9.186,4.216L274.8,83.929l3.3,29.8-31.525,1.712Z"/><rect class="k" width="5.432" height="1.464" transform="translate(264.299 80.454)"/><path class="d" d="M269.739,81.93h-5.453V80.445h5.453Zm-5.432,0h5.41v-1.46h-5.41Z"/><path class="d" d="M250.4,76.379a12.973,12.973,0,0,1-.158-2.427,13.819,13.819,0,0,1,.068-2.431,13.062,13.062,0,0,1,.158,2.427,13.75,13.75,0,0,1-.068,2.431Z"/><path class="j" d="M270.274,49.4l-1.16,16.415a5.136,5.136,0,0,1-5.1,4.755h0a5.136,5.136,0,0,1-5.106-5.453c.1-1.562.193-2.838.193-2.838s-3.972-.621-4.019-4.593c-.03-2.294.368-7.5.706-11.488a5.2,5.2,0,0,1,5.192-4.768h2.4a7.354,7.354,0,0,1,6.9,7.97Z"/><path class="l" d="M259.094,62.219a9.228,9.228,0,0,0,5.179-1.472s-1.224,2.859-5.188,2.5Z"/><path class="d" d="M256.594,51.214a.565.565,0,0,0,.544.574.539.539,0,0,0,.586-.509.569.569,0,0,0-.548-.574.539.539,0,0,0-.582.509Z"/><path class="d" d="M256.47,50.179c.068.077.5-.244,1.109-.24s1.057.3,1.126.231-.039-.167-.235-.308a1.567,1.567,0,0,0-.9-.278,1.472,1.472,0,0,0-.886.287C256.5,50.012,256.436,50.149,256.47,50.179Z"/><path class="d" d="M262.463,51.219a.565.565,0,0,0,.548.569.539.539,0,0,0,.582-.509.569.569,0,0,0-.544-.574.544.544,0,0,0-.586.514Z"/><path class="d" d="M262.471,50.294c.068.073.5-.244,1.109-.244s1.057.308,1.126.235-.039-.167-.235-.312a1.537,1.537,0,0,0-.9-.274,1.5,1.5,0,0,0-.886.283C262.5,50.127,262.437,50.26,262.471,50.294Z"/><path class="d" d="M260.31,54.669a4.066,4.066,0,0,0-.989-.175c-.158,0-.3-.047-.33-.154a.762.762,0,0,1,.1-.462c.146-.377.3-.775.462-1.186a20.715,20.715,0,0,0,1.036-3.108,20.184,20.184,0,0,0-1.284,3c-.154.428-.3.818-.428,1.194a.89.89,0,0,0-.081.612.4.4,0,0,0,.257.231,1.048,1.048,0,0,0,.265.034,3.639,3.639,0,0,0,.989.017Z"/><path class="d" d="M262.313,48.175c.06.167.668.09,1.387.175s1.284.283,1.391.133c.043-.073-.06-.227-.3-.39a2.423,2.423,0,0,0-2.114-.231C262.42,47.966,262.287,48.1,262.313,48.175Z"/><path class="d" d="M256.474,48.98c.107.141.531,0,1.036,0s.933.09,1.032-.056c.043-.068-.026-.205-.21-.338a1.5,1.5,0,0,0-1.665.051C256.487,48.77,256.427,48.916,256.474,48.98Z"/><path class="j" d="M268.935,52.383c.068-.03,2.731-.809,2.645,1.909a2.043,2.043,0,0,1-2.8,1.99C268.78,56.205,268.935,52.383,268.935,52.383Z"/><path class="l" d="M269.662,55.281a.876.876,0,0,0,.128.073.454.454,0,0,0,.351,0,1.169,1.169,0,0,0,.578-1.032,1.584,1.584,0,0,0-.111-.681.552.552,0,0,0-.347-.377.24.24,0,0,0-.283.12c-.039.077-.021.133-.039.137s-.056-.047-.03-.163a.3.3,0,0,1,.111-.163.364.364,0,0,1,.265-.064.668.668,0,0,1,.479.428,1.592,1.592,0,0,1,.141.766,1.228,1.228,0,0,1-.728,1.147.5.5,0,0,1-.428-.086C269.662,55.345,269.632,55.285,269.662,55.281Z"/><path class="d" d="M270.446,52.289a1.425,1.425,0,0,0-1.306.672c-.18.39-.218.826-.394,1.216a.959.959,0,0,1-.989.642.856.856,0,0,1-.565-.621,2.243,2.243,0,0,1,0-.877c.158-1.284.428-2.525.479-3.8a6.511,6.511,0,0,0-.8-3.694,3.561,3.561,0,0,0-3.176-1.789c-.856.068-1.618.509-2.457.629a3.334,3.334,0,0,1-2.757-.92,5.586,5.586,0,0,0-.514-.372,1.562,1.562,0,0,1,.283-.856A8.022,8.022,0,0,1,270.3,45.265c.946,2.059.668,4.927.146,7.007"/><path class="e" d="M255.738,45.581s10.423-3.352,14.934,5.667a17,17,0,0,0,.672-3.467,7.736,7.736,0,0,0-5.432-7.135C265.913,40.663,258.452,37.8,255.738,45.581Z"/><path class="d" d="M264.7,45.8a2.269,2.269,0,0,1-3.608.33,1.34,1.34,0,0,1-2.53-.133,3.026,3.026,0,0,1-1.014.741,1.036,1.036,0,0,1-1.156-.244,1.006,1.006,0,0,1,.073-1.194,2.427,2.427,0,0,1,1.053-.711,7.645,7.645,0,0,1,3.934-.6,5.3,5.3,0,0,1,3.45,1.879"/><g class="m"><path d="M255.738,45.581a4.862,4.862,0,0,1,3.317-1.5,13.092,13.092,0,0,1,11.617,7.17,17,17,0,0,0,.672-3.467,7.736,7.736,0,0,0-5.432-7.135C265.913,40.663,258.452,37.8,255.738,45.581Z"/></g><path class="e" d="M270.236,50.191a19.655,19.655,0,0,0-6.074-5.817,37.441,37.441,0,0,0-9.087-3.7,5.967,5.967,0,0,0-2.508-.261,2.273,2.273,0,0,0-1.862,1.537c-.257,1.027,1.567,2.615,2.427,3.24a27.847,27.847,0,0,0,2.607,1.541s-.021-1.909,3.035-2.3C262.929,43.878,270.236,50.191,270.236,50.191Z"/><path class="n" d="M261.688,42.4a9.845,9.845,0,0,0-3-1.023,3.988,3.988,0,0,1,.818-.492,7.757,7.757,0,0,1,2.346.792Z"/><path class="o" d="M269.662,52.477a4.819,4.819,0,0,1-.565.428c-.428.317-.882.642-1.365,1a14.2,14.2,0,0,1-2,1.34,12.143,12.143,0,0,1,1.866-1.52A6.513,6.513,0,0,1,269.662,52.477Z"/><path class="o" d="M269.919,56.441a8.283,8.283,0,0,1-3.647,3.09c-.03-.06.9-.591,1.909-1.447S269.868,56.4,269.919,56.441Z"/><path class="k" d="M254.981,55.127a8.758,8.758,0,0,0,1.357.291c1.969-.107,2.658-.77,5.873-.086a4.451,4.451,0,0,0,1.579.047,13.392,13.392,0,0,1,1.922-.137l.621,4.28s-3.814,3.334-7.247,2.962C254.642,62.014,254.12,56.835,254.981,55.127Z"/><path class="d" d="M254.981,55.127s-.039.111-.116.312a4.541,4.541,0,0,0-.184.933A6.776,6.776,0,0,0,255.3,59.8a4.854,4.854,0,0,0,1.52,1.841,4.922,4.922,0,0,0,2.594.856,7.191,7.191,0,0,0,3-.595,14.389,14.389,0,0,0,2.881-1.6c.351-.253.693-.505,1.01-.779v.043c-.218-1.507-.428-2.949-.616-4.28l.039.034a17.486,17.486,0,0,0-2.269.171,4.469,4.469,0,0,1-1.074-.056c-.342-.064-.668-.141-.993-.188a10.371,10.371,0,0,0-1.832-.154,10.024,10.024,0,0,0-1.567.171c-.471.081-.895.15-1.284.18a2.71,2.71,0,0,1-.522,0,1.805,1.805,0,0,1-.428-.086c-.509-.12-.775-.21-.775-.21a5.192,5.192,0,0,0,3,.051,8.924,8.924,0,0,1,3.424-.034c.325.043.659.12,1,.184a4.516,4.516,0,0,0,1.053.051,16.771,16.771,0,0,1,2.277-.175h.039v.034c.2,1.344.4,2.787.621,4.28h0c-.325.274-.668.531-1.019.783a14.686,14.686,0,0,1-2.9,1.605,7.251,7.251,0,0,1-3.022.595,4.708,4.708,0,0,1-4.178-2.739,6.738,6.738,0,0,1-.595-3.446,4.4,4.4,0,0,1,.2-.937A1.961,1.961,0,0,1,254.981,55.127Z"/><path class="n" d="M255.34,57.631a10.5,10.5,0,0,0,9.532-.175,6.955,6.955,0,0,1-2.029,1.832,6.671,6.671,0,0,1-3.09.5,5.5,5.5,0,0,1-2.461-.394,5.663,5.663,0,0,1-1.845-1.776"/><path class="n" d="M264.419,56.548a5.6,5.6,0,0,1-1.233.321,19.492,19.492,0,0,1-3.052.351,20.118,20.118,0,0,1-3.069-.133,5.8,5.8,0,0,1-1.25-.235,9.927,9.927,0,0,1,1.284.077,26.427,26.427,0,0,0,6.078-.214A9.747,9.747,0,0,1,264.419,56.548Z"/><path class="n" d="M265.155,58.333a3.382,3.382,0,0,1-.856.856,7.217,7.217,0,0,1-5.47,1.515,3.565,3.565,0,0,1-1.16-.3c0-.034.454.081,1.181.141a7.871,7.871,0,0,0,5.35-1.481C264.813,58.641,265.129,58.307,265.155,58.333Z"/><path class="d" d="M265.223,57.357a1.339,1.339,0,0,1-.342.223,7.552,7.552,0,0,1-1.006.467,10.127,10.127,0,0,1-1.584.467,11.07,11.07,0,0,1-2,.223,11.433,11.433,0,0,1-2.016-.158,9.66,9.66,0,0,1-1.592-.428,7.243,7.243,0,0,1-1.023-.428,1.284,1.284,0,0,1-.347-.21c0-.034.535.223,1.417.492a11.737,11.737,0,0,0,1.579.368,11.166,11.166,0,0,0,5.513-.492C264.693,57.584,265.2,57.31,265.223,57.357Z"/><path class="d" d="M262.03,57.357a11.09,11.09,0,0,1-5.064-.21c0-.064,1.134.124,2.53.175S262.026,57.284,262.03,57.357Z"/><path class="e" d="M214.767,110.716V76.006h48.278v34.709l-25.588.214Z"/><g class="m"><rect width="48.282" height="34.709" transform="translate(214.767 76.006)"/></g><path class="e" d="M237.457,110.93l-22.69-.214V76.006h22.617Z"/><rect class="d" width="3.009" height="6.022" transform="translate(223.991 76.006)"/><rect class="k" width="5.992" height="5.992" transform="translate(216.376 103.054)"/><path class="d" d="M222.381,109.059h-6.018v-5.992h6.018Zm-5.992,0h5.971v-5.992h-5.971Z"/><path class="j" d="M274.345,83.976l1,8.077-14.981,8.89,2.328,5.136L279.717,99.2c2.063-1.049,3.827-2.6,3.681-4.918l-.818-11.3Z"/><path class="e" d="M278.565,68.122a8.133,8.133,0,0,1,2.731,4.867c.574,3.129,2.521,11.878,2.521,11.878l-10.273,1.216V83.677c0-.034-.959-4.511-.959-4.511l1.913-6.177Z"/><path class="d" d="M283.411,84.905a4.457,4.457,0,0,1-.7.124l-1.922.265c-1.622.214-3.852.5-6.352.792l-.856.1h-.116v-.12c-.171-2.29-.36-4.323-.5-5.787-.068-.7-.124-1.284-.167-1.712a3.852,3.852,0,0,1-.039-.633,3.427,3.427,0,0,1,.12.625c.064.4.141.989.235,1.712.176,1.46.394,3.5.569,5.791l-.124-.1.856-.1c2.483-.3,4.708-.556,6.361-.728l1.93-.2a4.2,4.2,0,0,1,.7-.03Z"/><path class="d" d="M277.722,68.687c0,.034-.372.193-.942.544a8.2,8.2,0,0,0-3.3,3.912c-.253.621-.342,1.032-.381,1.023a3.39,3.39,0,0,1,.231-1.079,7.319,7.319,0,0,1,3.377-3.994,3.3,3.3,0,0,1,1.019-.407Z"/><path class="k" d="M260.13,100.494l-2.2,1.006-.942-.364-4.8-.3-3,.663-.086.171c0,1.631,3.086.989,4.032,1.246s.086,2.273.086,2.273-4.246,5.534-4.987,6.849c-.368.663-.248,1.027-.034,1.228a.638.638,0,0,0,.8.026l1.567-1.109s4.315.253,4.61.107a4.538,4.538,0,0,0,1.049-1.113,32.8,32.8,0,0,1,6.819-5.025Z"/><path class="d" d="M260.13,100.494s0,.026.056.086a1.782,1.782,0,0,1,.154.283l.586,1.1c.518.989,1.263,2.4,2.187,4.156l.03.064-.064.034a32.959,32.959,0,0,0-6.793,5.068h0a4.575,4.575,0,0,1-1.006,1.1.505.505,0,0,1-.214.077h-1.344c-1.032-.026-2.093-.073-3.18-.133l.068-.021L249.6,113l-.514.368a.8.8,0,0,1-.693.141.706.706,0,0,1-.5-.522,1.165,1.165,0,0,1,.086-.7,7.021,7.021,0,0,1,.7-1.13c1.49-2.14,3.026-4.152,4.46-6.035v.021a5.417,5.417,0,0,0,.278-.895,1.978,1.978,0,0,0,.034-.877.5.5,0,0,0-.214-.308,1.028,1.028,0,0,0-.4-.094c-.3-.03-.6-.026-.895-.03a8.9,8.9,0,0,1-1.759-.12,1.892,1.892,0,0,1-.8-.355,1.079,1.079,0,0,1-.355-.8h0v-.021l.086-.171v-.039h.043l3-.651h.026l4.8.325h0l.942.372h-.034l1.656-.728.428-.184.137-.051-.146.077-.428.205-1.614.766H257.9l-.946-.355h0l-4.8-.274h.021l-3,.676.06-.047-.086.171V101.7a.89.89,0,0,0,.3.651,1.627,1.627,0,0,0,.723.308,8.62,8.62,0,0,0,1.712.111c.3,0,.6,0,.912.026a1.254,1.254,0,0,1,.488.12.719.719,0,0,1,.308.428,2.179,2.179,0,0,1-.026.984,5.731,5.731,0,0,1-.291.933h0c-1.43,1.888-2.962,3.891-4.447,6.031a7.276,7.276,0,0,0-.659,1.1.98.98,0,0,0-.077.565.5.5,0,0,0,.342.364.578.578,0,0,0,.505-.111l.518-.368,1.019-.719.03-.021h.039c1.083.06,2.14.111,3.172.141h1.314a.313.313,0,0,0,.133-.047,4.481,4.481,0,0,0,.946-1.04h0a32.689,32.689,0,0,1,6.849-5.029l-.03.1-2.093-4.156c-.24-.484-.428-.856-.565-1.134l-.146-.3Z"/><path class="d" d="M254.625,108.468a22.623,22.623,0,0,1-1.982,1.918c-.561.518-1.074.98-1.447,1.31a3.424,3.424,0,0,1-.638.505,14.553,14.553,0,0,1,1.93-1.978A13.646,13.646,0,0,1,254.625,108.468Z"/><path class="d" d="M255.931,109.539a6.284,6.284,0,0,1-1.246,1.507,7.388,7.388,0,0,1-1.477,1.284,10.149,10.149,0,0,1,1.318-1.438,13.293,13.293,0,0,1,1.4-1.353Z"/><path class="e" d="M54.087,191.7c.36-1.391-.552-2.791-1.575-3.8s-2.247-1.913-2.778-3.249c-.856-2.166.3-4.965-1.177-6.772-.856-1.062-2.418-1.417-3.185-2.568a5.83,5.83,0,0,1-.693-2.025,20.546,20.546,0,0,0-5.136-9.584,17.888,17.888,0,0,0,2.007,9.237,11.634,11.634,0,0,1,1.528,3.506c.321,2.055-.83,4.173-.325,6.194.578,2.311,3.176,3.852,3.3,6.232.107,2.012-1.648,3.775-1.515,5.783a5.44,5.44,0,0,0,.895,2.384,8.02,8.02,0,0,0,7.277,4.306l4.238.146Z"/><g class="h"><path d="M54.087,191.7c.36-1.391-.552-2.791-1.575-3.8s-2.247-1.913-2.778-3.249c-.856-2.166.3-4.965-1.177-6.772-.856-1.062-2.418-1.417-3.185-2.568a5.83,5.83,0,0,1-.693-2.025,20.546,20.546,0,0,0-5.136-9.584,17.888,17.888,0,0,0,2.007,9.237,11.634,11.634,0,0,1,1.528,3.506c.321,2.055-.83,4.173-.325,6.194.578,2.311,3.176,3.852,3.3,6.232.107,2.012-1.648,3.775-1.515,5.783a5.44,5.44,0,0,0,.895,2.384,8.02,8.02,0,0,0,7.277,4.306l4.238.146Z"/></g><path class="d" d="M57.836,201.6a3.425,3.425,0,0,0,1.169,0,7.276,7.276,0,0,0,1.378-.347,5.877,5.877,0,0,0,1.712-.933,2.354,2.354,0,0,0,.7-.933,4.361,4.361,0,0,0,.2-1.284,11.719,11.719,0,0,1,.1-1.37,3.852,3.852,0,0,1,.518-1.365,10.334,10.334,0,0,0,1.6-2.9,10.11,10.11,0,0,0-.116-3.715,7.908,7.908,0,0,1,.1-3.981c.484-1.323,1.387-2.525,1.849-4.019a20.291,20.291,0,0,0,.347-4.73,6.271,6.271,0,0,1,.552-2.354c.342-.749.818-1.46,1.19-2.247a16.525,16.525,0,0,0,1.091-5.179q.146-1.344.3-2.709a12.923,12.923,0,0,1,.471-2.709,23.168,23.168,0,0,1,1.014-2.624,8.8,8.8,0,0,0,.492-1.37,14.241,14.241,0,0,0,.137-1.46,17.254,17.254,0,0,0-.116-2.932c-.116-.98-.291-1.948-.394-2.928v-.171l-.021-.193-.175.086a6.54,6.54,0,0,0-2.281,1.926,10.422,10.422,0,0,0-1.4,2.568,31.8,31.8,0,0,0-1.318,5.564,15.292,15.292,0,0,1-1.742,5.136c-.467.753-1.027,1.442-1.52,2.179a5.993,5.993,0,0,0-1.053,2.414c-.248,1.793.74,3.369.535,4.957a5.594,5.594,0,0,1-.775,2.2c-.385.676-.856,1.284-1.284,1.935a12.508,12.508,0,0,0-1.139,1.956,6.151,6.151,0,0,0-.518,2.14c-.107,1.43.1,2.787,0,4.066a9.348,9.348,0,0,1-1.044,3.484c-.514,1.04-1.083,1.986-1.562,2.9-.24.458-.458.9-.642,1.353a6.977,6.977,0,0,0-.372,1.34,8.531,8.531,0,0,0-.03,2.418A6.142,6.142,0,0,0,57,200.86a3.336,3.336,0,0,0,.347.372,1.768,1.768,0,0,0,.278.235c.154.116.24.167.24.167a5.565,5.565,0,0,1-.822-.809,6.117,6.117,0,0,1-1.147-3.065,8.5,8.5,0,0,1,.051-2.384,6.725,6.725,0,0,1,.377-1.31,14,14,0,0,1,.646-1.331c.479-.907,1.057-1.845,1.579-2.894A9.464,9.464,0,0,0,59.63,186.3c.111-1.31-.086-2.671.021-4.066a5.993,5.993,0,0,1,.514-2.05,11.685,11.685,0,0,1,1.126-1.918c.428-.629.886-1.258,1.284-1.948a5.727,5.727,0,0,0,.809-2.29c.205-1.691-.775-3.279-.522-4.944a5.783,5.783,0,0,1,1.019-2.311c.484-.723,1.049-1.413,1.524-2.187a15.35,15.35,0,0,0,1.785-5.209,31.555,31.555,0,0,1,1.31-5.5,10.076,10.076,0,0,1,1.365-2.513,6.279,6.279,0,0,1,2.183-1.849l-.193-.107v.171c.107.993.287,1.965.4,2.928a16.787,16.787,0,0,1,.086,2.876,13.607,13.607,0,0,1-.128,1.417,8.7,8.7,0,0,1-.475,1.318,24.062,24.062,0,0,0-1.023,2.654,13.426,13.426,0,0,0-.475,2.757c-.1.912-.2,1.815-.3,2.709a16.261,16.261,0,0,1-1.057,5.1c-.36.766-.835,1.477-1.186,2.251a6.549,6.549,0,0,0-.569,2.44,20.282,20.282,0,0,1-.321,4.683c-.441,1.447-1.365,2.645-1.832,4.015a8.462,8.462,0,0,0-.09,4.079,9.184,9.184,0,0,1,.137,3.643,11.974,11.974,0,0,1-1.562,2.868,3.852,3.852,0,0,0-.522,1.417,11.237,11.237,0,0,0-.09,1.387,4.182,4.182,0,0,1-.184,1.233,2.26,2.26,0,0,1-.655.89,5.877,5.877,0,0,1-1.648.937,7.368,7.368,0,0,1-1.357.368,5.215,5.215,0,0,1-.856.081Z"/><path class="d" d="M71.229,151.687a.377.377,0,0,0-.043.128c-.026.1-.056.227-.094.381-.081.334-.18.835-.342,1.468s-.548,1.335-.856,2.213-.689,1.875-1.01,3-.608,2.384-.907,3.728a15.615,15.615,0,0,1-1.357,4.139c-.347.689-.741,1.387-1.049,2.14a9.883,9.883,0,0,0-.612,2.431,48.233,48.233,0,0,1-.912,5.136c-.856,3.476-1.661,6.78-2.4,9.793l-2.007,7.987c-.561,2.26-1.014,4.1-1.331,5.389l-.351,1.472c-.034.154-.06.278-.081.381a.651.651,0,0,0,0,.133.306.306,0,0,1,.047-.124,2.612,2.612,0,0,0,.111-.377c.094-.355.227-.856.4-1.455.338-1.284.822-3.12,1.413-5.372s1.284-4.974,2.067-7.97,1.558-6.322,2.418-9.8a47.907,47.907,0,0,0,.912-5.136A9.768,9.768,0,0,1,65.832,169c.3-.745.685-1.438,1.032-2.14a15.632,15.632,0,0,0,1.353-4.2c.291-1.348.565-2.6.856-3.728a28.6,28.6,0,0,1,.963-3c.325-.856.685-1.588.856-2.239s.227-1.143.3-1.485c.026-.154.047-.283.068-.385a.522.522,0,0,0-.026-.137Z"/><path class="e" d="M58.585,201.626c2.769-1.644,3.561-6.639,2.41-9.644s-3.18-5.753-3.488-8.959c-.24-2.465.565-4.991,0-7.4-.775-3.249-3.946-5.77-3.912-9.109,0-1.875,1.087-3.638,1.006-5.513-.107-2.294-1.871-4.118-2.962-6.142-1.669-3.095-1.781-6.759-2.35-10.23s-1.9-7.191-4.974-8.9c-.454,2.949-1.233,4.969-.989,8.963.09,1.434,1.755,4.178,1.982,7.324.137,1.879.231,3.758.342,5.641a17.809,17.809,0,0,0,.886,5.4c.505,1.314,1.314,2.5,1.686,3.852.7,2.547-.223,5.308.347,7.889.479,2.187,1.995,4.071,2.3,6.288.428,3.116-1.584,6.352-.552,9.327.514,1.472,1.712,2.658,2.072,4.182.265,1.181-.026,2.431.218,3.617.39,1.913,4.036,3.4,5.992,3.279"/><path class="d" d="M45.068,138.658a.822.822,0,0,0,0,.167,4.873,4.873,0,0,0,.06.484c.064.428.137,1.049.283,1.858s.574,1.712.907,2.834.7,2.371,1.014,3.792.582,3,.856,4.683a19.1,19.1,0,0,0,1.421,5.295c.39.886.822,1.772,1.151,2.714a12.233,12.233,0,0,1,.582,3,61.36,61.36,0,0,0,.813,6.451c.856,4.37,1.656,8.531,2.388,12.315s1.472,7.174,2.063,10.033,1.074,5.136,1.413,6.759c.167.783.3,1.4.394,1.836.047.2.086.355.111.475a.6.6,0,0,0,.047.158.667.667,0,0,0,0-.163c-.021-.124-.051-.283-.086-.484-.081-.428-.2-1.057-.347-1.845-.317-1.618-.77-3.929-1.327-6.776s-1.25-6.266-2-10.042l-2.367-12.315a60.858,60.858,0,0,1-.818-6.421,12.259,12.259,0,0,0-.6-3.048c-.338-.967-.779-1.853-1.169-2.731a19.758,19.758,0,0,1-1.425-5.235c-.3-1.686-.561-3.266-.89-4.687s-.689-2.7-1.057-3.8-.783-2.016-.95-2.808-.248-1.425-.33-1.845c-.039-.2-.064-.36-.09-.479A.775.775,0,0,0,45.068,138.658Z"/><rect class="i" width="13.757" height="19.283" transform="translate(189.487 59.63)"/><rect class="d" width="13.757" height="2.234" transform="translate(189.487 59.63)"/><rect class="d" width="13.757" height="2.234" transform="translate(189.487 76.678)"/><rect class="d" width="8.36" height="4.357" transform="translate(192.171 63.238)"/><path class="i" d="M198.33,65.417c-.021,0-.021-.175-.1-.467a1.978,1.978,0,0,0-.723-1.032,1.869,1.869,0,1,0,0,3,2,2,0,0,0,.719-1.027c.081-.3.081-.471.1-.471s0,.043,0,.128a1.442,1.442,0,0,1-.039.364,1.952,1.952,0,0,1-.706,1.13,2.02,2.02,0,0,1-1.939.317,2.054,2.054,0,1,1,1.939-3.561,1.948,1.948,0,0,1,.706,1.134,1.407,1.407,0,0,1,.039.364C198.343,65.374,198.339,65.417,198.33,65.417Z"/><path class="d" d="M193.134,69.273a.325.325,0,1,1-.325-.325.325.325,0,0,1,.325.325Z"/><path class="d" d="M195.586,69.273a.325.325,0,1,1-.325-.325A.325.325,0,0,1,195.586,69.273Z"/><path class="d" d="M198.039,69.273a.321.321,0,0,1-.321.321.325.325,0,1,1,.321-.321Z"/><circle class="d" cx="0.325" cy="0.325" r="0.325" transform="translate(192.483 71.024)"/><path class="d" d="M195.586,71.349a.325.325,0,1,1-.325-.325A.325.325,0,0,1,195.586,71.349Z"/><circle class="d" cx="0.325" cy="0.325" r="0.325" transform="translate(197.393 71.024)"/><circle class="d" cx="0.325" cy="0.325" r="0.325" transform="translate(192.483 73.104)"/><path class="d" d="M195.586,73.429a.325.325,0,1,1-.325-.325.325.325,0,0,1,.325.325Z"/><circle class="d" cx="0.325" cy="0.325" r="0.325" transform="translate(197.393 73.104)"/><circle class="e" cx="1.177" cy="1.177" r="1.177" transform="translate(199.092 70.172)"/><rect class="d" width="7.961" height="185.228" transform="translate(175.653 16.274)"/><rect class="i" width="79.276" height="177.416" transform="translate(96.376 24.09)"/><rect class="d" width="7.337" height="185.228" transform="translate(91.261 16.274)"/><rect class="d" width="92.353" height="7.816" transform="translate(91.261 16.274)"/><path class="i" d="M183.627,16.265a2.823,2.823,0,0,1-.3.312l-.856.788-2.855,2.568c-1.1,1.014-2.093,1.948-2.769,2.658a8.948,8.948,0,0,0-.758.856,2.4,2.4,0,0,0-.163.261c-.021.064-.034.1-.043.1s0-.039,0-.116a1.245,1.245,0,0,1,.133-.3,6.339,6.339,0,0,1,.715-.933,38.194,38.194,0,0,1,2.735-2.718c1.113-1.014,2.14-1.9,2.9-2.534.377-.317.689-.565.907-.736a1.934,1.934,0,0,1,.347-.214Z"/><path class="i" d="M98.6,24.252c-.043.039-1.712-1.712-3.75-3.912s-3.63-4.024-3.587-4.066,1.712,1.712,3.75,3.912S98.645,24.21,98.6,24.252Z"/><rect class="d" width="5.333" height="23.696" rx="2.555" transform="translate(100.678 104.817)"/><path class="i" d="M104.441,122.692a.9.9,0,1,0-1.284.8v1.066a.4.4,0,0,0,.4.4h0a.4.4,0,0,0,.407-.4v-1.044A.9.9,0,0,0,104.441,122.692Z"/><rect class="d" width="14.686" height="2.834" rx="1.357" transform="translate(103.276 112.796)"/><path class="i" d="M108.614,115.711a1.875,1.875,0,0,1-.449.039l-1.216.051a10.81,10.81,0,0,1-1.815-.06,4.165,4.165,0,0,1-1.057-.265,1.9,1.9,0,0,1-.92-.762,1.357,1.357,0,0,1-.056-1.2.98.98,0,0,1,.4-.428,2.5,2.5,0,0,1,.5-.21,5.62,5.62,0,0,1,1.815-.214c.514,0,.929.026,1.216.043a2,2,0,0,1,.428.047,13.868,13.868,0,0,1-1.661.064,6.018,6.018,0,0,0-1.751.253,1.156,1.156,0,0,0-.77.552,1.134,1.134,0,0,0,.056,1,1.665,1.665,0,0,0,.8.685,3.814,3.814,0,0,0,1,.261,12.551,12.551,0,0,0,1.785.111A9.352,9.352,0,0,1,108.614,115.711Z"/><path class="d" d="M133.829,63.816V61.688c0-1.378,0-3.386-.026-5.933,0-5.089-.03-12.319-.051-20.918l.1.1H110.309l.111-.111V63.8l-.094-.094,17.053.047,4.773.026h.017l-4.751.026-17.121.047H110.2V34.675h23.76v.1c0,8.625-.039,15.88-.051,20.974,0,2.534,0,4.537-.026,5.911V63.61A.757.757,0,0,1,133.829,63.816Z"/><path class="d" d="M129.96,60.229a.623.623,0,0,1,0-.111c0-.081,0-.184,0-.312V58.594c0-1.062,0-2.6-.026-4.541,0-3.891-.03-9.417-.051-15.914l.1.1h-16.21c-.026,0,.21-.21.111-.107h0V60.2l-.09-.094,11.758.051h3.3l-3.257.026-11.818.047h-.094V38.147h0l.116-.116h16.308v.1c-.021,6.545-.039,12.075-.051,15.983,0,1.93,0,3.459-.026,4.516v1.494C129.96,60.195,129.96,60.229,129.96,60.229Z"/><path class="d" d="M133.829,124.986v-4.045c0-2.628,0-6.451-.03-11.253,0-9.605-.03-23.114-.047-38.861l.1.107H110.313l.111-.111c0,21.1,0,40.235-.03,54.176l-.081-.077,17.19.043h4.725l-4.67.021-17.241.043h-.077v-.043c0-13.945,0-33.079-.034-54.176V70.7h23.743v.107c-.021,15.756-.039,29.308-.051,38.951,0,4.8-.021,8.612-.026,11.232v3.762A.44.44,0,0,1,133.829,124.986Z"/><path class="d" d="M129.96,121.99v-3.621c0-2.341,0-5.74-.03-9.995,0-8.509-.03-20.456-.051-34.221l.111.107H113.75l.111-.111c0,19.125-.03,36.289-.039,47.837l-.073-.073,11.891.039h3.227l-3.185.021-11.934.039h-.077v-.021c0-11.557-.021-28.713-.039-47.837v-.1h16.432v.107c-.021,13.8-.039,25.768-.051,34.294,0,4.246-.021,7.636-.03,9.969v3.347A.641.641,0,0,1,129.96,121.99Z"/><path class="d" d="M133.829,193.592v-4.045c0-2.628,0-6.45-.03-11.253,0-9.605-.03-23.135-.047-38.861l.1.107H110.313l.111-.111c0,21.1,0,40.235-.03,54.176l-.081-.081,17.19.047h4.725l-4.67.021-17.241.043h-.077v-.081c0-13.945,0-33.079-.034-54.176v-.111h23.743v.107c-.021,15.756-.039,29.308-.051,38.951,0,4.8-.021,8.612-.026,11.232v3.762A.746.746,0,0,1,133.829,193.592Z"/><path class="d" d="M129.96,190.591V186.97c0-2.341,0-5.74-.03-9.995,0-8.509-.03-20.456-.051-34.221l.111.107H113.75l.111-.111c0,19.125-.03,36.289-.039,47.837l-.073-.073,11.891.039h3.227l-3.185.021-11.934.039h-.077v-.073c0-11.557-.021-28.713-.039-47.837v-.111h16.432v.107c-.021,13.8-.039,25.768-.051,34.294,0,4.246-.021,7.636-.03,9.969v3.347A1.492,1.492,0,0,1,129.96,190.591Z"/><path class="d" d="M114.127,60.216A15.8,15.8,0,0,1,112.115,62a16.563,16.563,0,0,1-2.14,1.605,16.787,16.787,0,0,1,2.012-1.781,16.861,16.861,0,0,1,2.14-1.609Z"/><path class="d" d="M133.975,63.388a9.477,9.477,0,0,1-2.063-1.4,9.94,9.94,0,0,1-1.789-1.738c.047-.047.856.7,1.93,1.562S134,63.349,133.975,63.388Z"/><path class="d" d="M133.483,35.527a11.665,11.665,0,0,1-1.776,1.43,11.506,11.506,0,0,1-1.909,1.25,11.7,11.7,0,0,1,1.776-1.43,11.849,11.849,0,0,1,1.909-1.25Z"/><path class="d" d="M113.815,37.77a8.171,8.171,0,0,1-1.948-1.1,8,8,0,0,1-1.712-1.43A19.627,19.627,0,0,1,112,36.49a18.694,18.694,0,0,1,1.815,1.28Z"/><path class="d" d="M113.665,74.208a7.906,7.906,0,0,1-3.334-3.767c.06-.03.6.972,1.528,2.007S113.7,74.153,113.665,74.208Z"/><path class="d" d="M133.547,70.776a12.1,12.1,0,0,1-1.669,1.614,12.109,12.109,0,0,1-1.815,1.447,12.381,12.381,0,0,1,1.669-1.614A11.956,11.956,0,0,1,133.547,70.776Z"/><path class="d" d="M113.656,122.221c.034.056-.745.621-1.631,1.408s-1.549,1.494-1.6,1.451a6.45,6.45,0,0,1,1.447-1.618,6.814,6.814,0,0,1,1.781-1.241Z"/><path class="d" d="M133.17,124.926a19.579,19.579,0,0,1-3.116-2.876,10.445,10.445,0,0,1,1.635,1.357A10.317,10.317,0,0,1,133.17,124.926Z"/><path class="d" d="M114.054,143.392a16.956,16.956,0,0,1-1.978-1.9,17.46,17.46,0,0,1-1.815-2.05,16.957,16.957,0,0,1,1.978,1.9,16.191,16.191,0,0,1,1.815,2.05Z"/><path class="d" d="M133.752,139.278a16.008,16.008,0,0,1-1.8,1.888,15.149,15.149,0,0,1-1.956,1.712,30.819,30.819,0,0,1,3.758-3.617Z"/><path class="d" d="M113.271,190.313a21.344,21.344,0,0,1-2.932,3.24,21.341,21.341,0,0,1,2.932-3.24Z"/><path class="d" d="M133.44,193.592a8.886,8.886,0,0,1-1.828-1.438,9.066,9.066,0,0,1-1.554-1.712,19.564,19.564,0,0,1,1.712,1.567,19.129,19.129,0,0,1,1.669,1.584Z"/><path class="d" d="M165.14,63.816V61.688c0-1.378,0-3.386-.026-5.933,0-5.089-.03-12.319-.051-20.918l.1.1H141.641l.111-.111V63.8l-.094-.094,17.057.047,4.768.026h.039l-4.751.026-17.121.047h-.094V34.675h23.739v.1c-.021,8.625-.039,15.88-.051,20.974,0,2.534-.021,4.537-.026,5.911V63.61a.759.759,0,0,1-.077.205Z"/><path class="d" d="M161.271,60.229a.623.623,0,0,1,0-.111c0-.081,0-.184,0-.312V58.594c0-1.062,0-2.6-.026-4.541,0-3.891-.03-9.417-.051-15.914l.1.1h-16.21c-.026,0,.21-.21.111-.107h0V60.2l-.09-.094,11.758.051h3.3l-3.257.026-11.818.047h-.094V38.147h0l.116-.116h16.261v.1c-.021,6.545-.039,12.075-.051,15.983,0,1.93,0,3.459-.026,4.516v1.494A.391.391,0,0,0,161.271,60.229Z"/><path class="d" d="M165.14,124.986v-4.045c0-2.628,0-6.451-.03-11.253,0-9.605-.03-23.114-.047-38.861l.1.107H141.624l.111-.111c0,21.1-.021,40.235-.03,54.176l-.081-.077,17.19.043h5.954l-1.258.021-4.67.021-17.241.043h-.077v-.064c0-13.945-.021-33.079-.034-54.176V70.7H165.23v.107c-.021,15.756-.039,29.308-.051,38.951,0,4.8-.021,8.612-.026,11.232v3.762A1.339,1.339,0,0,1,165.14,124.986Z"/><path class="d" d="M161.271,121.99v-3.621c0-2.341,0-5.74-.03-9.995,0-8.509-.03-20.456-.051-34.221l.111.107h-16.24l.111-.111c0,19.125-.03,36.289-.039,47.837l-.073-.073,11.891.039h3.227l-3.18.021-11.938.039h-.077v-.021c0-11.557-.021-28.713-.039-47.837v-.1h16.424v.107c0,13.8-.039,25.768-.051,34.294,0,4.246,0,7.636-.03,9.969v3.347A.941.941,0,0,1,161.271,121.99Z"/><path class="d" d="M165.14,193.592v-4.045c0-2.628,0-6.45-.03-11.253,0-9.605-.03-23.135-.047-38.861l.1.107H141.624l.111-.111c0,21.1-.021,40.235-.03,54.176l-.081-.081,17.19.047h4.747l-4.67.021-17.241.043h-.077v-.081c0-13.945-.021-33.079-.034-54.176v-.111h23.743v.107c-.021,15.756-.039,29.308-.051,38.951,0,4.8-.021,8.612-.026,11.232v3.762A.534.534,0,0,1,165.14,193.592Z"/><path class="d" d="M161.271,190.591V186.97c0-2.341,0-5.74-.03-9.995,0-8.509-.03-20.456-.051-34.221l.111.107h-16.24l.111-.111c0,19.125-.03,36.289-.039,47.837l-.073-.073,11.891.039h3.227l-3.18.021-11.938.039h-.077v-.073c0-11.557-.021-28.713-.039-47.837v-.111h16.424v.107c0,13.8-.039,25.768-.051,34.294,0,4.246,0,7.636-.03,9.969v3.347A2.214,2.214,0,0,1,161.271,190.591Z"/><path class="d" d="M145.438,60.216A15.8,15.8,0,0,1,143.426,62a16.561,16.561,0,0,1-2.14,1.605,16.789,16.789,0,0,1,2.012-1.781A16.862,16.862,0,0,1,145.438,60.216Z"/><path class="d" d="M165.277,63.388a9.477,9.477,0,0,1-2.063-1.4,9.939,9.939,0,0,1-1.789-1.738c.047-.047.856.7,1.93,1.562S165.311,63.349,165.277,63.388Z"/><path class="d" d="M164.794,35.527a11.664,11.664,0,0,1-1.776,1.43,11.507,11.507,0,0,1-1.909,1.25,11.986,11.986,0,0,1,1.776-1.43,11.848,11.848,0,0,1,1.909-1.25Z"/><path class="d" d="M145.125,37.77a8.171,8.171,0,0,1-1.948-1.1,8,8,0,0,1-1.712-1.43,19.625,19.625,0,0,1,1.845,1.246,18.692,18.692,0,0,1,1.815,1.28Z"/><path class="d" d="M144.976,74.208a7.906,7.906,0,0,1-3.334-3.767c.06-.03.6.972,1.528,2.007S145.014,74.153,144.976,74.208Z"/><path class="d" d="M164.849,70.776a12.1,12.1,0,0,1-1.669,1.614,12.109,12.109,0,0,1-1.811,1.447,12.38,12.38,0,0,1,1.669-1.614,11.956,11.956,0,0,1,1.811-1.447Z"/><path class="d" d="M144.967,122.221c.034.056-.745.621-1.631,1.408s-1.549,1.494-1.6,1.451a6.451,6.451,0,0,1,1.447-1.618,6.814,6.814,0,0,1,1.781-1.241Z"/><path class="d" d="M164.481,124.926a19.578,19.578,0,0,1-3.116-2.876A10.444,10.444,0,0,1,163,123.407,10.316,10.316,0,0,1,164.481,124.926Z"/><path class="d" d="M145.365,143.392a16.957,16.957,0,0,1-1.978-1.9,17.458,17.458,0,0,1-1.815-2.05,16.572,16.572,0,0,1,1.978,1.9,16.19,16.19,0,0,1,1.815,2.05Z"/><path class="d" d="M165.063,139.278a15.59,15.59,0,0,1-1.8,1.888,15.15,15.15,0,0,1-1.956,1.712,30.82,30.82,0,0,1,3.758-3.617Z"/><path class="d" d="M144.582,190.313a21.344,21.344,0,0,1-2.932,3.24,10.63,10.63,0,0,1,1.383-1.712,11.082,11.082,0,0,1,1.549-1.528Z"/><path class="d" d="M164.751,193.592a8.886,8.886,0,0,1-1.828-1.438,9.066,9.066,0,0,1-1.554-1.712,19.57,19.57,0,0,1,1.712,1.567A19.131,19.131,0,0,1,164.751,193.592Z"/><rect class="e" width="52.503" height="37.744" transform="translate(158.805 163.762)"/><path class="d" d="M172.888,163.762c.073,0,0,7.97,0,7.97H169v-7.97Z"/><g class="m"><rect width="26.251" height="37.744" transform="translate(211.308 201.506) rotate(180)"/></g><rect class="k" width="7.028" height="4.974" transform="translate(160.406 194.118)"/><path class="d" d="M167.443,199.1h-7.05v-5h7.05Zm-7.028,0h7.007v-4.974h-7.007Z"/><rect class="k" width="3.514" height="4.974" transform="translate(168.732 194.118)"/><path class="d" d="M172.254,199.1h-3.536v-5h3.536Zm-3.51,0h3.488v-4.974h-3.488Z"/></g></g></svg>